<svg width="120" height="120" viewBox="0 0 120 120" fill="none" xmlns="http://www.w3.org/2000/svg">
<g clip-path="url(#clip0_697_1008)">
<path d="M69.9661 6.50732C69.9661 6.50732 72.5151 4.25081 74.429 3.25928C76.3428 2.26776 78.9366 1.53281 81.9719 1.22705C84.9954 0.922553 92.0879 2.37768 92.1438 2.38916C92.1004 2.40745 88.7774 3.80761 86.7805 4.96631C84.7705 6.13265 79.1988 10.642 77.1956 12.856C75.1991 15.0625 72.6143 18.9373 72.5969 18.9634L76.5462 19.3716C76.5326 19.3772 74.2064 20.3472 72.9426 21.3208C71.6753 22.2972 70.9631 23.3166 69.8626 24.7358C68.7674 26.1482 67.3007 28.6093 67.2864 28.6333L73.844 26.6216C73.844 26.6216 71.2578 27.4271 69.8421 28.3813C68.4264 29.3356 67.7079 30.1144 66.6575 31.5034C65.607 32.8926 64.0178 37.0776 64.0178 37.0776L69.5803 34.5942C69.5522 34.6138 67.3709 36.1319 66.2913 37.4233C65.2102 38.7173 63.2325 45.3994 63.2122 45.4683L65.9036 42.3569C65.9036 42.3569 67.2247 49.7304 66.7844 51.3042C66.3442 52.8777 66.07 53.648 65.6848 55.1694C65.2996 56.691 64.093 63.6763 64.093 63.6763L68.0315 54.3315C68.0418 54.3809 69.4019 60.8915 69.7395 65.1323C70.0784 69.3893 69.6145 77.7456 69.6145 77.7456L71.7835 73.1675C71.7807 73.2315 71.3509 83.136 70.4016 86.8911C69.4493 90.6583 68.756 92.782 66.9553 96.2251C65.1621 99.6539 60.1053 105.583 60.0628 105.633C60.1031 105.615 63.2153 104.204 65.3421 103.748C67.474 103.29 73.8592 103.661 73.9114 103.664C73.8599 103.671 68.914 104.369 65.971 105.507C63.0126 106.652 61.3504 107.765 58.6692 109.604C55.9881 111.443 51.799 113.747 55.8635 115.509L63.2747 119.267L64.468 120.969L60.0628 119.893L54.5071 116.867L52.6565 115.693C52.665 115.615 52.6741 115.537 52.6829 115.457C53.0928 111.716 53.8542 103.628 54.3089 97.8813C54.6657 93.3426 54.8064 88.3207 54.7356 83.8433C54.7113 82.6618 54.6689 81.5191 54.6233 80.4312C54.402 75.1766 53.6027 70.2785 53.0676 66.6479C52.6596 63.6228 51.8562 57.7716 52.0901 52.5649C52.1448 51.4911 52.185 50.4366 52.2122 49.4282C52.437 43.3762 51.6233 42.6281 53.052 36.7563C53.6793 34.5134 54.192 33.0494 54.6155 31.8257C55.3089 29.9027 55.729 28.5523 57.1048 26.3169C59.4195 22.7214 60.5359 20.8152 62.8811 18.0278C63.2242 17.6367 63.5367 17.311 63.8225 17.0376C65.5884 15.4294 66.1537 15.2481 67.9319 13.7437C69.0599 12.813 70.0684 12.096 70.7571 11.6372C70.8984 11.5432 70.9621 11.4664 70.9446 11.439C70.9362 11.4135 70.8664 11.4256 70.7483 11.4849C70.4662 11.627 70.1064 11.8219 69.6575 12.0903C68.2278 12.9478 65.7478 14.2782 63.9807 16.0171C63.8148 16.1814 63.6169 16.3749 63.4036 16.5894C61.3085 18.6082 57.9438 23.1958 56.8528 24.8608C55.6113 26.6717 54.8214 27.9961 53.886 30.3384C53.7285 30.7412 53.5906 31.0785 53.4661 31.3677C52.8784 32.7723 52.508 33.0619 52.2044 34.519C51.8162 36.2604 50.8657 40.1832 50.721 44.1499C50.5567 48.1028 50.2469 48.602 50.0061 52.0239C49.9957 52.1739 49.9866 52.3225 49.9788 52.4692C49.8374 55.7747 50.6369 57.8925 50.7913 60.5952C50.9871 63.423 50.7506 63.4715 51.3469 66.9097C51.9814 70.345 53.0026 78.8918 53.0989 83.1021C53.1103 83.3544 53.1199 83.6122 53.1272 83.8735C53.2301 87.9148 52.8124 92.9108 52.7376 95.3413C52.6501 97.946 52.4959 101.722 52.1995 108.609C52.028 112.46 51.8751 114.145 51.7512 115.119L51.1673 114.749C50.9074 113.902 44.4419 115.363 43.804 114.749C43.1658 114.134 41.2382 113.364 40.221 113.052C39.2139 112.744 37.5831 112.523 37.5501 112.518C37.5666 112.503 38.9024 111.302 39.8753 110.695C40.8542 110.084 42.9973 109.249 42.9973 109.249C42.9855 109.233 40.3324 105.78 39.2356 103.812C38.1364 101.84 36.8577 98.5425 36.8577 98.5425L42.179 103.256C42.1567 103.222 40.684 100.968 39.8323 99.4644C38.974 97.9487 36.7415 93.1265 36.7415 93.1265C36.7415 93.1265 38.6528 95.8323 40.0842 97.3901C41.5086 98.9402 45.3667 102.072 45.4055 102.104C45.3849 102.072 43.1819 98.6471 41.7385 96.4683C40.2885 94.2793 39.1267 93.1285 37.8733 90.7378C36.6199 88.347 35.8334 85.8112 34.9387 82.5249C34.0441 79.2389 32.9989 71.7058 32.9895 69.6606C32.9803 67.6162 33.2717 64.4321 33.2717 64.4321C33.2717 64.4321 34.3728 67.871 35.2424 69.021C36.1122 70.171 37.9553 71.5249 37.9553 71.5249C37.9553 71.5249 36.1135 66.474 35.7239 63.8872C35.3344 61.3006 35.4544 59.8086 35.4817 57.1929C35.5091 54.5765 36.5188 45.7427 36.5188 45.7427C36.5188 45.7427 36.6301 48.8074 36.8225 50.7612C37.0149 52.7149 37.1034 54.6501 37.7454 57.0464C38.3874 59.4429 41.8733 65.8257 41.8733 65.8257C41.8733 65.8257 39.5285 57.5784 39.0647 54.2603C38.6011 50.9424 38.4393 48.9925 38.4885 45.7007C38.5378 42.4089 38.8091 39.1462 39.2942 37.3091C39.7793 35.4722 40.2902 34.5159 40.97 32.7417C41.6498 30.9674 42.9418 27.5071 44.2483 24.7896C45.5548 22.0721 46.8293 19.7807 47.9466 18.0112C49.0592 16.2491 50.9889 13.6338 51.0051 13.6118C50.9946 13.6444 49.8993 17.0291 49.7376 18.8599C49.5763 20.6861 49.9316 23.5432 49.9368 23.5845C49.9431 23.5503 50.4186 21.0037 50.9319 19.4263C51.4487 17.8382 52.479 15.5394 53.8548 13.2554C55.2305 10.9713 58.8411 6.84326 58.8411 6.84326L57.9612 11.7886C57.9612 11.7886 59.6433 9.2373 61.0305 7.88037C62.4177 6.52351 63.6622 5.76909 65.4934 4.63232C67.3214 3.49785 74.7313 0.506832 74.7639 0.493652L69.9661 6.50732Z" fill="#4D6BFE"/>
</g>
<defs>
<clipPath id="clip0_697_1008">
<rect width="120" height="120" fill="white"/>
</clipPath>
</defs>
</svg>
