<svg width="224" height="224" viewBox="0 0 224 224" fill="none" xmlns="http://www.w3.org/2000/svg">
<circle cx="111.655" cy="111.655" r="111.655" fill="#422B1B"/>
<path d="M95.6251 161.65L87.515 162.066L77.8652 134.533L103.402 109.371L133.596 117.689L141.498 140.647L145.241 152.168L134.76 161.692L131.267 161.109L125.361 161.692L122.242 162.773L119.372 164.353L117.501 167.597L116.086 173.42V174.917L118.083 180.99L120.745 184.566L123.781 186.521L126.442 187.602L132.764 187.977H142.163H147.653L154.641 186.895L161.045 184.899L166.161 182.778L168.365 181.53L170.694 179.035L172.275 176.207L173.065 169.136L173.522 155.661L173.273 146.927L172.732 132.495L170.944 116.483L169.946 108.955L167.949 97.1438L166.161 88.0772L163.582 78.3451L162.293 75.0179L160.546 68.9873L159.007 64.2877L157.677 59.9623L154.391 52.3097L150.648 45.7801L147.986 42.4529L145.158 40.3733L142.33 39.9574L138.628 42.4529L134.636 47.9012L131.35 51.8106L127.607 55.5121L123.365 56.8846L119.039 56.3024L113.757 55.221H110.888L105.273 56.3024L99.1177 56.8846L96.9135 56.3024L94.1685 54.8467L91.382 51.4779L87.5973 46.6535L85.1019 43.2431L82.3569 40.7061L79.9863 39.791L78.1979 40.2065L75.5777 41.6626L71.9178 46.362L68.5074 52.0597L64.5979 61.7087L62.1857 68.9038L60.1478 75.9744L57.6524 85.6644L55.9888 93.0681L54.4084 100.429L53.0775 108.622L51.6218 119.519L50.6237 130.208L50.1257 139.623L49.793 145.913V164.935L50.1257 170.883L50.8316 176.664L53.5356 180.199L59.0678 183.693L67.0519 186.188C69.617 186.618 74.8135 187.486 75.0797 187.519C75.3459 187.552 78.3789 187.782 79.8622 187.893H90.3013L96.623 187.477L100.449 185.73L103.153 183.36L105.814 178.868L106.313 172.006L105.398 168.637L102.238 163.937L95.6251 161.65Z" fill="white"/>
<path d="M87.0219 161.552C87.0219 161.552 98.5889 159.784 102.992 164.333C108.195 169.708 107.8 177.757 102.992 183.488C98.8196 188.462 93.602 188.1 87.0219 188.1C77.3248 188.1 71.5678 188.17 62.3746 185.085C56.2509 183.03 51.565 180.055 50.6676 175.684C48.9541 167.338 48.8912 136.738 52.4412 112.186C55.3706 91.9276 58.1914 79.9197 64.8485 61.2606C68.1708 51.9488 73.5469 41.302 78.6995 40.069C85.7064 38.3923 91.0367 56.8626 99.4639 56.8628C107.871 56.863 108.081 53.6104 118.74 56.4635" stroke="white" stroke-width="1.40901"/>
<path d="M135.97 161.552C135.97 161.552 124.403 159.784 120.001 164.333C114.798 169.708 115.193 177.757 120.001 183.488C124.173 188.462 129.39 188.1 135.97 188.1C145.667 188.1 151.424 188.17 160.618 185.085C166.741 183.03 171.427 180.055 172.325 175.684C174.038 167.338 174.101 136.738 170.551 112.186C167.622 91.9276 164.801 79.9197 158.144 61.2606C154.821 51.9488 149.445 41.302 144.293 40.069C137.286 38.3923 131.955 56.8626 123.528 56.8628C115.121 56.863 115.91 53.8294 104.756 56.3289" stroke="white" stroke-width="1.40901"/>
<path d="M77.7969 134.574L88.0494 164.319L90.4542 169.762L120.453 174.192L145.515 152.041L133.49 117.739L103.238 109.259L77.7969 134.574Z" stroke="white" stroke-width="1.40901"/>
<path d="M97.2243 138.009L103.563 109.873L136.571 127.841M97.2243 138.009L136.571 127.841M97.2243 138.009L77.9941 134.472M97.2243 138.009L90.7595 169.359L126.321 168.428M97.2243 138.009L126.321 168.428M136.571 127.841L126.321 168.428" stroke="white" stroke-width="2.41"/>
<path d="M53.4535 90.2733L60.4449 93.214C60.7691 93.3504 61.1442 93.2268 61.3238 92.9244L65.631 85.6715C65.8862 85.2417 65.6251 84.6902 65.1309 84.6152L56.5152 83.308C49.8834 82.3017 43.1314 82.3909 36.5285 83.5719L33.9802 84.0277C33.1969 84.1679 33.2103 85.296 33.9967 85.4175L39.0449 86.1972C43.9963 86.9619 48.8353 88.3308 53.4535 90.2733Z" fill="white"/>
<path d="M53.0967 104.454L60.49 106.146C60.8329 106.225 61.1811 106.039 61.3059 105.71L64.2999 97.8236C64.4773 97.3563 64.1251 96.858 63.6254 96.8692L54.9133 97.0651C48.2073 97.2158 41.5715 98.4663 35.2706 100.767L32.8388 101.655C32.0913 101.927 32.2988 103.037 33.0944 103.021L38.2014 102.919C43.2106 102.82 48.213 103.335 53.0967 104.454Z" fill="white"/>
<path d="M53.2402 117.971L60.6298 116.262C60.9724 116.183 61.2042 115.863 61.1727 115.512L60.4185 107.111C60.3738 106.613 59.8393 106.319 59.3947 106.547L51.6445 110.531C45.6789 113.598 40.2572 117.623 35.5955 122.447L33.7964 124.308C33.2434 124.88 33.9148 125.787 34.6234 125.425L39.1725 123.102C43.6344 120.823 48.3589 119.1 53.2402 117.971Z" fill="white"/>
<path d="M169.857 90.2733L162.866 93.214C162.541 93.3504 162.166 93.2268 161.987 92.9244L157.68 85.6715C157.424 85.2417 157.685 84.6902 158.18 84.6152L166.795 83.308C173.427 82.3017 180.179 82.3909 186.782 83.5719L189.33 84.0277C190.114 84.1679 190.1 85.296 189.314 85.4175L184.266 86.1972C179.314 86.9619 174.475 88.3308 169.857 90.2733Z" fill="white"/>
<path d="M170.214 104.454L162.821 106.146C162.478 106.225 162.129 106.039 162.005 105.71L159.011 97.8236C158.833 97.3563 159.185 96.858 159.685 96.8692L168.397 97.0651C175.103 97.2158 181.739 98.4663 188.04 100.767L190.472 101.655C191.219 101.927 191.012 103.037 190.216 103.021L185.109 102.919C180.1 102.82 175.098 103.335 170.214 104.454Z" fill="white"/>
<path d="M170.07 117.971L162.681 116.262C162.338 116.183 162.106 115.863 162.138 115.512L162.892 107.111C162.937 106.613 163.471 106.319 163.916 106.547L171.666 110.531C177.632 113.598 183.053 117.623 187.715 122.447L189.514 124.308C190.067 124.88 189.396 125.787 188.687 125.425L184.138 123.102C179.676 120.823 174.952 119.1 170.07 117.971Z" fill="white"/>
<ellipse cx="80.606" cy="90.8707" rx="4.03371" ry="6.28862" fill="#422B1B"/>
<ellipse cx="142.692" cy="90.8707" rx="4.03371" ry="6.28862" fill="#422B1B"/>
<path d="M122.102 90.3443C121.632 91.3891 120.368 91.7942 119.318 91.3364C118.584 91.0164 117.841 90.7458 117.089 90.5244C115.457 90.044 113.966 91.3829 113.966 93.0838V93.645C113.966 94.9101 112.941 95.9357 111.676 95.9357C110.41 95.9357 109.385 94.9101 109.385 93.645V93.0823C109.385 91.3816 107.895 90.0418 106.262 90.5175C105.497 90.7404 104.743 91.0136 103.998 91.3373C102.948 91.7942 101.684 91.3891 101.214 90.3443C100.809 89.4445 101.137 88.3741 102.024 87.941C103.222 87.3557 104.477 86.8908 105.79 86.5462C107.693 86.0528 109.643 85.8062 111.64 85.8062C113.637 85.8062 115.587 86.0528 117.49 86.5462C118.821 86.8911 120.087 87.3564 121.291 87.9422C122.179 88.374 122.507 89.4445 122.102 90.3443Z" fill="#422B1B"/>
<path d="M103.637 124.42L103.58 124.136C103.332 122.9 103.959 121.654 105.098 121.116C105.465 120.943 105.865 120.854 106.27 120.854H106.551C107.247 120.854 107.924 121.081 108.479 121.501C109.948 122.612 110.175 124.732 108.974 126.129L106.404 129.121C106.146 129.422 106.058 129.833 106.17 130.213C106.358 130.845 107.031 131.197 107.656 130.99L113.511 129.052" stroke="white" stroke-width="1.40901"/>
<path d="M112.99 118.92C113.639 118.569 114.524 118.61 115.498 119.136C116.466 119.658 117.438 120.624 118.144 121.93C118.849 123.236 119.124 124.579 119.03 125.675C118.935 126.777 118.485 127.54 117.836 127.89C117.187 128.241 116.302 128.2 115.327 127.674C114.359 127.152 113.387 126.187 112.681 124.88C111.976 123.574 111.701 122.232 111.795 121.136C111.89 120.033 112.341 119.27 112.99 118.92Z" stroke="white" stroke-width="1.40901"/>
</svg>
