<svg width="154" height="126" viewBox="0 0 154 126" fill="none" xmlns="http://www.w3.org/2000/svg">
<path d="M43 1.5H92.9512C93.8702 1.50007 94.7525 1.86187 95.4072 2.50684L113.456 20.2861C114.124 20.9439 114.5 21.842 114.5 22.7793V45.4609C114.5 46.1627 114.289 46.8484 113.895 47.4287L109.468 53.9385C108.278 55.6875 105.821 55.9896 104.243 54.5811L99.1064 49.9941C96.0224 47.2406 91.1851 48.0286 89.1338 51.6182L88.5391 52.6582C87.1954 55.0096 83.8046 55.0096 82.4609 52.6582L81.4131 50.8242C79.5676 47.5946 75.3923 46.5688 72.2607 48.5762L59.8545 56.5293C58.7157 57.2591 57.2584 57.2676 56.1113 56.5508L41.1445 47.1963C40.1215 46.5566 39.5 45.4351 39.5 44.2285V5C39.5 3.067 41.067 1.5 43 1.5Z" stroke="#2F6BF2" stroke-width="3"/>
<path d="M112 94L39.6875 94C39.61 94 39.543 93.9529 39.5146 93.8857L39.5 93.8125L39.5 66.833C39.5002 64.6352 42.133 63.5067 43.7246 65.0225L55.043 75.8027C57.2565 77.9108 60.7643 77.8094 62.8525 75.5771L71.2393 66.6123C72.3216 65.4553 74.1936 65.5838 75.1074 66.8779L80.4189 74.4033C82.817 77.8002 87.9725 77.4096 89.832 73.6904L91.1279 71.0986C92.1146 69.1254 94.9874 69.3044 95.7217 71.3848L95.9229 71.9551C97.4312 76.2288 103.171 76.9465 105.686 73.1758L109.92 66.8242C111.292 64.7661 114.5 65.7374 114.5 68.2109L114.5 91.5C114.5 92.8807 113.381 94 112 94Z" stroke="#2F6BF2" stroke-width="3"/>
<path d="M6.70108 110.315H9.62864C10.6769 110.315 11.6059 110.537 12.4156 110.98C13.2295 111.423 13.8666 112.048 14.3268 112.853C14.7913 113.654 15.0235 114.596 15.0235 115.678C15.0235 116.727 14.7913 117.641 14.3268 118.42C13.8666 119.2 13.2295 119.808 12.4156 120.242C11.6059 120.673 10.6769 120.888 9.62864 120.888H6.70108C5.64853 120.888 4.71529 120.675 3.90137 120.249C3.08745 119.818 2.44824 119.213 1.98375 118.433C1.52353 117.653 1.29341 116.733 1.29341 115.672C1.29341 114.589 1.52566 113.648 1.99015 112.847C2.4589 112.041 3.10023 111.419 3.91415 110.98C4.72807 110.537 5.65705 110.315 6.70108 110.315ZM6.70108 112.629C6.13858 112.629 5.64213 112.742 5.21174 112.968C4.7856 113.19 4.45321 113.526 4.21458 113.978C3.97594 114.43 3.85662 114.994 3.85662 115.672C3.85662 116.32 3.97807 116.859 4.22097 117.289C4.46813 117.719 4.80478 118.041 5.23091 118.254C5.65705 118.467 6.14711 118.574 6.70108 118.574H9.64782C10.2061 118.574 10.694 118.465 11.1116 118.248C11.5335 118.031 11.8595 117.707 12.0896 117.276C12.324 116.846 12.4411 116.313 12.4411 115.678C12.4411 115.001 12.324 114.436 12.0896 113.984C11.8595 113.533 11.5335 113.194 11.1116 112.968C10.694 112.742 10.2061 112.629 9.64782 112.629H6.70108ZM9.47523 108.679V122.537H6.8481V108.679H9.47523ZM21.4475 122.192C20.4546 122.192 19.596 121.981 18.8715 121.559C18.1514 121.133 17.5953 120.54 17.2032 119.782C16.8112 119.019 16.6151 118.135 16.6151 117.129C16.6151 116.115 16.8112 115.229 17.2032 114.47C17.5953 113.707 18.1514 113.115 18.8715 112.693C19.596 112.267 20.4546 112.054 21.4475 112.054C22.4404 112.054 23.297 112.267 24.0171 112.693C24.7416 113.115 25.2998 113.707 25.6918 114.47C26.0839 115.229 26.2799 116.115 26.2799 117.129C26.2799 118.135 26.0839 119.019 25.6918 119.782C25.2998 120.54 24.7416 121.133 24.0171 121.559C23.297 121.981 22.4404 122.192 21.4475 122.192ZM21.4603 120.082C21.912 120.082 22.2892 119.955 22.5917 119.699C22.8943 119.439 23.1222 119.085 23.2757 118.638C23.4333 118.19 23.5122 117.681 23.5122 117.11C23.5122 116.539 23.4333 116.03 23.2757 115.582C23.1222 115.135 22.8943 114.781 22.5917 114.521C22.2892 114.261 21.912 114.131 21.4603 114.131C21.0044 114.131 20.6208 114.261 20.3097 114.521C20.0029 114.781 19.7707 115.135 19.613 115.582C19.4596 116.03 19.3829 116.539 19.3829 117.11C19.3829 117.681 19.4596 118.19 19.613 118.638C19.7707 119.085 20.0029 119.439 20.3097 119.699C20.6208 119.955 21.0044 120.082 21.4603 120.082ZM27.0997 114.323V112.182H35.9974V114.323H32.8334V122H30.2382V114.323H27.0997ZM41.7327 122.192C40.7398 122.192 39.8811 121.981 39.1567 121.559C38.4365 121.133 37.8804 120.54 37.4884 119.782C37.0963 119.019 36.9003 118.135 36.9003 117.129C36.9003 116.115 37.0963 115.229 37.4884 114.47C37.8804 113.707 38.4365 113.115 39.1567 112.693C39.8811 112.267 40.7398 112.054 41.7327 112.054C42.7256 112.054 43.5821 112.267 44.3023 112.693C45.0267 113.115 45.585 113.707 45.977 114.47C46.3691 115.229 46.5651 116.115 46.5651 117.129C46.5651 118.135 46.3691 119.019 45.977 119.782C45.585 120.54 45.0267 121.133 44.3023 121.559C43.5821 121.981 42.7256 122.192 41.7327 122.192ZM41.7455 120.082C42.1972 120.082 42.5743 119.955 42.8769 119.699C43.1794 119.439 43.4074 119.085 43.5608 118.638C43.7185 118.19 43.7973 117.681 43.7973 117.11C43.7973 116.539 43.7185 116.03 43.5608 115.582C43.4074 115.135 43.1794 114.781 42.8769 114.521C42.5743 114.261 42.1972 114.131 41.7455 114.131C41.2895 114.131 40.906 114.261 40.5949 114.521C40.2881 114.781 40.0558 115.135 39.8982 115.582C39.7448 116.03 39.6681 116.539 39.6681 117.11C39.6681 117.681 39.7448 118.19 39.8982 118.638C40.0558 119.085 40.2881 119.439 40.5949 119.699C40.906 119.955 41.2895 120.082 41.7455 120.082ZM59.3348 116.004V118.146H54.2084V116.004H59.3348ZM55.1032 112.182V122H52.5017V112.182H55.1032ZM61.0415 112.182V122H58.4591V112.182H61.0415ZM67.6285 122.192C66.6185 122.192 65.7492 121.987 65.0205 121.578C64.2961 121.165 63.7378 120.581 63.3458 119.827C62.9537 119.068 62.7577 118.171 62.7577 117.136C62.7577 116.126 62.9537 115.239 63.3458 114.477C63.7378 113.714 64.2897 113.119 65.0013 112.693C65.7172 112.267 66.5567 112.054 67.5198 112.054C68.1675 112.054 68.7705 112.158 69.3287 112.367C69.8912 112.572 70.3813 112.881 70.7989 113.294C71.2208 113.707 71.5489 114.227 71.7833 114.854C72.0177 115.476 72.1349 116.205 72.1349 117.04V117.788H63.8444V116.1H69.5716C69.5716 115.708 69.4864 115.361 69.316 115.058C69.1455 114.756 68.909 114.519 68.6064 114.349C68.3082 114.174 67.9608 114.087 67.5645 114.087C67.1512 114.087 66.7847 114.183 66.4651 114.374C66.1498 114.562 65.9026 114.815 65.7236 115.135C65.5447 115.45 65.453 115.802 65.4488 116.19V117.794C65.4488 118.28 65.5383 118.7 65.7172 119.053C65.9005 119.407 66.1583 119.68 66.4907 119.871C66.8231 120.063 67.2172 120.159 67.6732 120.159C67.9758 120.159 68.2528 120.116 68.5042 120.031C68.7556 119.946 68.9708 119.818 69.1498 119.648C69.3287 119.477 69.4651 119.268 69.5589 119.021L72.0773 119.188C71.9495 119.793 71.6874 120.321 71.2911 120.773C70.8991 121.22 70.392 121.57 69.7698 121.821C69.1519 122.068 68.4381 122.192 67.6285 122.192ZM84.911 116.004V118.146H79.7845V116.004H84.911ZM80.6794 112.182V122H78.0779V112.182H80.6794ZM86.6176 112.182V122H84.0352V112.182H86.6176ZM91.5299 122.185C90.9035 122.185 90.3453 122.077 89.8552 121.859C89.3651 121.638 88.9774 121.312 88.6919 120.881C88.4106 120.447 88.27 119.906 88.27 119.258C88.27 118.712 88.3701 118.254 88.5704 117.884C88.7707 117.513 89.0434 117.214 89.3886 116.989C89.7338 116.763 90.1258 116.592 90.5647 116.477C91.0079 116.362 91.4724 116.281 91.9582 116.234C92.5292 116.175 92.9894 116.119 93.3389 116.068C93.6883 116.013 93.9419 115.932 94.0995 115.825C94.2572 115.719 94.336 115.561 94.336 115.352V115.314C94.336 114.909 94.2082 114.596 93.9525 114.374C93.7011 114.153 93.3431 114.042 92.8786 114.042C92.3886 114.042 91.9987 114.151 91.7089 114.368C91.4191 114.581 91.2274 114.849 91.1336 115.173L88.6151 114.969C88.743 114.372 88.9944 113.857 89.3694 113.422C89.7444 112.983 90.2281 112.646 90.8204 112.412C91.417 112.173 92.1073 112.054 92.8914 112.054C93.4369 112.054 93.9589 112.118 94.4575 112.246C94.9603 112.374 95.4056 112.572 95.7934 112.84C96.1855 113.109 96.4944 113.454 96.7203 113.876C96.9461 114.293 97.059 114.794 97.059 115.378V122H94.4767V120.638H94.3999C94.2423 120.945 94.0313 121.216 93.7671 121.45C93.5029 121.68 93.1855 121.862 92.8147 121.994C92.444 122.121 92.0157 122.185 91.5299 122.185ZM92.3097 120.306C92.7103 120.306 93.064 120.227 93.3708 120.07C93.6776 119.908 93.9184 119.69 94.0931 119.418C94.2678 119.145 94.3552 118.836 94.3552 118.491V117.449C94.27 117.504 94.1528 117.555 94.0036 117.602C93.8588 117.645 93.6947 117.685 93.5115 117.724C93.3282 117.758 93.145 117.79 92.9617 117.82C92.7785 117.845 92.6123 117.869 92.4632 117.89C92.1436 117.937 91.8644 118.011 91.6258 118.114C91.3872 118.216 91.2018 118.354 91.0697 118.529C90.9376 118.7 90.8715 118.913 90.8715 119.168C90.8715 119.539 91.0058 119.822 91.2742 120.018C91.547 120.21 91.8921 120.306 92.3097 120.306ZM101.773 118.408L105.308 112.182H107.993V122H105.397V115.755L101.875 122H99.1716V112.182H101.773V118.408ZM104.841 108.756H106.74C106.736 109.531 106.448 110.156 105.877 110.629C105.31 111.102 104.543 111.338 103.576 111.338C102.604 111.338 101.835 111.102 101.268 110.629C100.701 110.156 100.418 109.531 100.418 108.756H102.304C102.299 109.05 102.393 109.314 102.585 109.548C102.781 109.783 103.111 109.9 103.576 109.9C104.027 109.9 104.351 109.785 104.547 109.555C104.743 109.325 104.841 109.058 104.841 108.756ZM109.408 124.876V119.839H110.163C110.38 119.703 110.555 119.486 110.687 119.188C110.823 118.889 110.934 118.538 111.019 118.133C111.109 117.728 111.177 117.291 111.224 116.822C111.275 116.349 111.32 115.872 111.358 115.391L111.614 112.182H119.144V119.839H120.665V124.876H118.07V122H112.068V124.876H109.408ZM112.873 119.839H116.574V114.278H113.928L113.825 115.391C113.753 116.439 113.649 117.33 113.512 118.062C113.376 118.791 113.163 119.384 112.873 119.839ZM126.726 122.192C125.716 122.192 124.847 121.987 124.118 121.578C123.394 121.165 122.835 120.581 122.443 119.827C122.051 119.068 121.855 118.171 121.855 117.136C121.855 116.126 122.051 115.239 122.443 114.477C122.835 113.714 123.387 113.119 124.099 112.693C124.815 112.267 125.654 112.054 126.617 112.054C127.265 112.054 127.868 112.158 128.426 112.367C128.989 112.572 129.479 112.881 129.897 113.294C130.318 113.707 130.647 114.227 130.881 114.854C131.115 115.476 131.233 116.205 131.233 117.04V117.788H122.942V116.1H128.669C128.669 115.708 128.584 115.361 128.414 115.058C128.243 114.756 128.007 114.519 127.704 114.349C127.406 114.174 127.059 114.087 126.662 114.087C126.249 114.087 125.882 114.183 125.563 114.374C125.247 114.562 125 114.815 124.821 115.135C124.642 115.45 124.551 115.802 124.546 116.19V117.794C124.546 118.28 124.636 118.7 124.815 119.053C124.998 119.407 125.256 119.68 125.588 119.871C125.921 120.063 126.315 120.159 126.771 120.159C127.073 120.159 127.35 120.116 127.602 120.031C127.853 119.946 128.068 119.818 128.247 119.648C128.426 119.477 128.563 119.268 128.657 119.021L131.175 119.188C131.047 119.793 130.785 120.321 130.389 120.773C129.997 121.22 129.49 121.57 128.867 121.821C128.25 122.068 127.536 122.192 126.726 122.192ZM139.843 116.004V118.146H134.716V116.004H139.843ZM135.611 112.182V122H133.009V112.182H135.611ZM141.549 112.182V122H138.967V112.182H141.549ZM148.098 122.192C147.105 122.192 146.246 121.981 145.522 121.559C144.802 121.133 144.246 120.54 143.854 119.782C143.462 119.019 143.266 118.135 143.266 117.129C143.266 116.115 143.462 115.229 143.854 114.47C144.246 113.707 144.802 113.115 145.522 112.693C146.246 112.267 147.105 112.054 148.098 112.054C149.091 112.054 149.947 112.267 150.668 112.693C151.392 113.115 151.95 113.707 152.342 114.47C152.734 115.229 152.93 116.115 152.93 117.129C152.93 118.135 152.734 119.019 152.342 119.782C151.95 120.54 151.392 121.133 150.668 121.559C149.947 121.981 149.091 122.192 148.098 122.192ZM148.111 120.082C148.562 120.082 148.94 119.955 149.242 119.699C149.545 119.439 149.773 119.085 149.926 118.638C150.084 118.19 150.163 117.681 150.163 117.11C150.163 116.539 150.084 116.03 149.926 115.582C149.773 115.135 149.545 114.781 149.242 114.521C148.94 114.261 148.562 114.131 148.111 114.131C147.655 114.131 147.271 114.261 146.96 114.521C146.653 114.781 146.421 115.135 146.263 115.582C146.11 116.03 146.033 116.539 146.033 117.11C146.033 117.681 146.11 118.19 146.263 118.638C146.421 119.085 146.653 119.439 146.96 119.699C147.271 119.955 147.655 120.082 148.111 120.082Z" fill="#2F6BF2"/>
</svg>
