<svg width="176" height="106" viewBox="0 0 176 106" fill="none" xmlns="http://www.w3.org/2000/svg">
<g clip-path="url(#clip0_63_3259)">
<path d="M30.8947 27.148C29.9414 27.3972 28.9773 28.1663 28.5224 29.0221C28.1432 29.7153 28.1324 29.9428 28.0782 38.7171L28.0241 47.4806L23.2036 48.9539C20.4413 49.7988 18.1665 50.5571 17.8849 50.7196C17.2674 51.0879 16.6933 51.7053 16.3033 52.4528C16.0217 52.9727 16 53.1244 16 54.1643V55.3017L19.1198 65.4626C20.8313 71.0522 22.3478 75.8618 22.4887 76.1434C22.857 76.8692 23.5827 77.5408 24.3952 77.9308C25.0126 78.2233 25.2185 78.2666 26.0201 78.2666C26.93 78.2666 27.2008 78.1799 44.0237 73.0345C53.4263 70.1639 61.3448 67.7049 61.6265 67.5749C62.3306 67.2499 63.0672 66.4808 63.4463 65.7009C63.728 65.1268 63.7605 64.9318 63.7713 64.0219C63.7713 63.0253 63.7388 62.8845 62.7531 59.6889C62.1898 57.869 61.7131 56.3308 61.6915 56.255C61.659 56.1683 62.5364 56.125 65.0387 56.0925C68.7976 56.0383 68.9384 56.0166 69.9242 55.2909C70.4983 54.8792 71.1049 54.0018 71.2891 53.3519C71.3757 53.0485 71.4082 49.463 71.4082 41.4686C71.4082 30.1486 71.4082 30.0078 71.1807 29.412C70.8666 28.5779 70.0758 27.7438 69.2201 27.343L68.5376 27.0289L50.014 27.0072C34.0144 26.9855 31.4146 27.0072 30.8947 27.148ZM68.7976 29.0654C69.1117 29.282 69.3392 29.542 69.5234 29.932L69.7834 30.4953V41.5444C69.7834 52.0844 69.7725 52.6152 69.5775 53.0269C69.3176 53.601 68.9818 53.926 68.4401 54.1751C68.0177 54.3701 67.3135 54.3809 49.7432 54.3809H31.4796L31.003 54.1318C30.7214 53.991 30.3856 53.6985 30.1906 53.4277L29.8656 52.951V41.4903V30.0295L30.2014 29.607C30.3856 29.3795 30.7214 29.0871 30.9597 28.9571L31.3821 28.7079L49.8624 28.7404L68.3318 28.7621L68.7976 29.0654ZM28.0566 50.3404L28.0241 51.3912L25.0451 52.2903C23.4094 52.7886 21.0479 53.5035 19.8022 53.8935L17.5382 54.5759L17.6032 54.0343C17.6899 53.3519 18.1123 52.6152 18.6323 52.2686C18.9681 52.052 27.4933 49.333 27.9482 49.3005C28.0566 49.2897 28.0782 49.5388 28.0566 50.3404ZM28.3815 53.731C28.6307 54.4568 29.7898 55.5833 30.6239 55.9083C31.198 56.125 31.5338 56.1575 33.3645 56.2116L35.4443 56.2766L27.5366 58.7031C23.1819 60.0355 19.6072 61.1079 19.5856 61.0863C19.5206 61.0104 18.199 56.5366 18.1773 56.3525C18.1665 56.2116 19.1306 55.8758 22.987 54.6951C25.6409 53.8718 27.9049 53.211 28.0132 53.2219C28.1541 53.2327 28.2732 53.3952 28.3815 53.731ZM50.1224 56.2766C50.0682 56.2983 44.5111 58.0098 37.7733 60.068C31.0463 62.1262 25.4568 63.8919 25.3484 63.9894C25.056 64.2602 25.1101 64.791 25.6409 66.4592C26.1284 68.0082 26.3342 68.3549 26.8108 68.3549C26.9408 68.3549 33.4295 66.405 41.2397 64.011C56.2752 59.4181 55.9178 59.5372 55.9178 58.8981C55.9178 58.7681 55.7444 58.1182 55.5386 57.4682C55.3328 56.8074 55.1595 56.2658 55.1595 56.2441C55.1595 56.2333 56.2319 56.2225 57.5426 56.2225C58.8534 56.2225 59.9258 56.2441 59.9258 56.2658C59.9258 56.2875 60.4132 57.9123 61.0199 59.873C62.1789 63.6536 62.2764 64.206 61.9298 64.8885C61.6915 65.3651 61.2582 65.8417 60.8682 66.0367C60.2291 66.3725 26.5075 76.5876 26.0417 76.5876C25.251 76.5876 24.3627 76.0568 24.0052 75.3743C23.7777 74.941 20.073 62.787 20.1597 62.7545C20.1922 62.7328 24.9801 61.2596 30.7864 59.483L41.348 56.2333H45.7894C48.2375 56.2333 50.1874 56.255 50.1224 56.2766ZM53.8054 57.6307C53.9137 57.9882 53.9787 58.3023 53.9571 58.3131C53.7621 58.4648 27.4933 66.405 27.4283 66.3292C27.385 66.2859 27.2766 65.9934 27.19 65.6901L27.0275 65.1376L40.254 61.0754C47.5334 58.8331 53.5129 57.0024 53.5454 56.9916C53.5779 56.9916 53.6971 57.2732 53.8054 57.6307Z" fill="#353535"/>
<path d="M33.7655 35.7385C33.278 35.8576 33.018 36.031 32.6497 36.4426C32.1948 36.9734 32.0431 37.7533 32.1081 39.454C32.1514 40.7431 32.1839 40.8622 32.4764 41.3389C32.6822 41.6747 32.9639 41.9455 33.2672 42.108C33.7221 42.3463 33.863 42.3571 35.7045 42.3571C37.8927 42.3571 38.2826 42.2596 38.8351 41.6097C39.29 41.0681 39.3659 40.6239 39.3225 38.7716C39.29 37.1467 39.2792 37.0709 38.9867 36.6376C38.8243 36.3884 38.4884 36.0743 38.2285 35.9443C37.8168 35.7168 37.611 35.6951 35.932 35.6735C34.9246 35.6626 33.9496 35.6951 33.7655 35.7385ZM37.5677 37.645C37.7085 37.8508 37.7302 38.1433 37.6977 39.1507C37.676 39.9848 37.6218 40.4398 37.5244 40.5373C37.3185 40.7431 34.2529 40.7323 34.0038 40.5264C33.7438 40.3206 33.733 37.7967 33.993 37.5475C34.1338 37.4067 34.4479 37.3742 35.7695 37.3742C37.3727 37.3742 37.3944 37.3742 37.5677 37.645Z" fill="#353535"/>
<path d="M32.4329 46.5488C32.0863 46.8521 32.0754 47.4371 32.4112 47.7729C32.6171 47.9787 32.7687 47.9895 35.7477 47.9895H38.8782L39.1057 47.7404C39.409 47.4263 39.409 46.9171 39.1274 46.603C38.9107 46.3647 38.8566 46.3647 35.7802 46.3647C32.9529 46.3647 32.6279 46.3863 32.4329 46.5488Z" fill="#353535"/>
<path d="M41.7817 46.5813C41.4892 46.9063 41.5109 47.5346 41.825 47.7837C42.0525 47.9787 42.3125 47.9895 45.1939 47.9895H48.3245L48.5411 47.7079C48.6711 47.5454 48.7686 47.3071 48.7686 47.1771C48.7686 47.0471 48.6711 46.8088 48.5411 46.6463L48.3245 46.3647H45.1506C42.085 46.3647 41.9658 46.3755 41.7817 46.5813Z" fill="#353535"/>
<path d="M51.162 46.6463C51.032 46.8088 50.9346 47.0471 50.9346 47.1771C50.9346 47.3071 51.032 47.5454 51.162 47.7079L51.3787 47.9895H54.5526C57.4774 47.9895 57.7374 47.9787 57.8999 47.7946C58.214 47.4588 58.2357 46.993 57.9757 46.6571L57.7482 46.3647H54.5634H51.3787L51.162 46.6463Z" fill="#353535"/>
<path d="M60.598 46.6138C60.2947 46.928 60.2947 47.3396 60.5872 47.7079L60.8038 47.9895H63.9344C66.8159 47.9895 67.0758 47.9787 67.3033 47.7837C67.6175 47.5346 67.6391 46.9063 67.3466 46.5813C67.1625 46.3755 67.0433 46.3647 63.9886 46.3647H60.8255L60.598 46.6138Z" fill="#353535"/>
<path d="M80.8221 50.2665V40.812H87.0959V42.46H82.8211V44.3066H84.3584C85.1062 44.3066 85.751 44.4282 86.2927 44.6713C86.8374 44.9114 87.2575 45.2515 87.553 45.6916C87.8484 46.1317 87.9961 46.6503 87.9961 47.2473C87.9961 47.8413 87.8484 48.3661 87.553 48.8215C87.2575 49.274 86.8374 49.6279 86.2927 49.8833C85.751 50.1388 85.1062 50.2665 84.3584 50.2665H80.8221ZM82.8211 48.66H84.3584C84.7154 48.66 85.017 48.5953 85.2632 48.4661C85.5094 48.3337 85.6956 48.1598 85.8218 47.9444C85.951 47.7259 86.0157 47.4874 86.0157 47.2289C86.0157 46.8534 85.8726 46.5364 85.5863 46.2779C85.3032 46.0163 84.8939 45.8855 84.3584 45.8855H82.8211V48.66ZM91.275 50.4004C90.8226 50.4004 90.4194 50.3219 90.0655 50.1649C89.7115 50.0049 89.4315 49.7695 89.2253 49.4586C89.0222 49.1447 88.9206 48.7538 88.9206 48.286C88.9206 47.8921 88.9929 47.5612 89.1376 47.2935C89.2822 47.0257 89.4792 46.8103 89.7285 46.6472C89.9778 46.4841 90.2609 46.361 90.5779 46.2779C90.898 46.1948 91.2334 46.1363 91.5843 46.1024C91.9967 46.0594 92.3291 46.0193 92.5815 45.9824C92.8338 45.9424 93.0169 45.8839 93.1308 45.807C93.2447 45.73 93.3016 45.6162 93.3016 45.4654V45.4377C93.3016 45.1453 93.2093 44.9191 93.0246 44.759C92.8431 44.599 92.5845 44.519 92.2491 44.519C91.8951 44.519 91.6135 44.5975 91.4043 44.7544C91.195 44.9083 91.0565 45.1022 90.9888 45.3361L89.1699 45.1884C89.2622 44.7575 89.4438 44.3851 89.7146 44.0712C89.9855 43.7542 90.3348 43.5111 90.7626 43.3418C91.1934 43.1694 91.692 43.0833 92.2583 43.0833C92.6522 43.0833 93.0293 43.1294 93.3893 43.2218C93.7525 43.3141 94.0741 43.4572 94.3542 43.6511C94.6373 43.845 94.8605 44.0943 95.0236 44.399C95.1867 44.7006 95.2682 45.0622 95.2682 45.4838V50.2665H93.4032V49.2832H93.3478C93.2339 49.5048 93.0816 49.7002 92.8908 49.8695C92.6999 50.0357 92.4707 50.1665 92.2029 50.2619C91.9351 50.3542 91.6258 50.4004 91.275 50.4004ZM91.8382 49.0431C92.1275 49.0431 92.3829 48.9862 92.6045 48.8723C92.8261 48.7554 93 48.5984 93.1262 48.4014C93.2524 48.2045 93.3155 47.9813 93.3155 47.7321V46.9796C93.2539 47.0196 93.1693 47.0565 93.0616 47.0904C92.9569 47.1211 92.8384 47.1504 92.7061 47.1781C92.5738 47.2027 92.4414 47.2258 92.3091 47.2473C92.1767 47.2658 92.0567 47.2827 91.949 47.2981C91.7182 47.332 91.5166 47.3858 91.3442 47.4597C91.1719 47.5335 91.038 47.6336 90.9426 47.7598C90.8472 47.8829 90.7995 48.0367 90.7995 48.2214C90.7995 48.4892 90.8964 48.6938 91.0903 48.8354C91.2873 48.9739 91.5366 49.0431 91.8382 49.0431ZM101.729 45.9362V47.4828H98.0266V45.9362H101.729ZM98.6729 43.1756V50.2665H96.794V43.1756H98.6729ZM102.961 43.1756V50.2665H101.096V43.1756H102.961ZM104.487 50.2665V43.1756H106.454V45.927H107.008L108.937 43.1756H111.245L108.739 46.6933L111.273 50.2665H108.937L107.188 47.7505H106.454V50.2665H104.487ZM115.016 50.405C114.299 50.405 113.679 50.2527 113.156 49.948C112.635 49.6402 112.234 49.2124 111.951 48.6646C111.667 48.1137 111.526 47.4751 111.526 46.7487C111.526 46.0163 111.667 45.3761 111.951 44.8283C112.234 44.2774 112.635 43.8496 113.156 43.5449C113.679 43.2371 114.299 43.0833 115.016 43.0833C115.733 43.0833 116.352 43.2371 116.872 43.5449C117.395 43.8496 117.798 44.2774 118.081 44.8283C118.364 45.3761 118.506 46.0163 118.506 46.7487C118.506 47.4751 118.364 48.1137 118.081 48.6646C117.798 49.2124 117.395 49.6402 116.872 49.948C116.352 50.2527 115.733 50.405 115.016 50.405ZM115.025 48.8816C115.351 48.8816 115.624 48.7892 115.842 48.6046C116.061 48.4168 116.225 48.1614 116.336 47.8382C116.45 47.5151 116.507 47.1473 116.507 46.7349C116.507 46.3225 116.45 45.9547 116.336 45.6316C116.225 45.3084 116.061 45.053 115.842 44.8652C115.624 44.6775 115.351 44.5836 115.025 44.5836C114.696 44.5836 114.419 44.6775 114.194 44.8652C113.973 45.053 113.805 45.3084 113.691 45.6316C113.58 45.9547 113.525 46.3225 113.525 46.7349C113.525 47.1473 113.58 47.5151 113.691 47.8382C113.805 48.1614 113.973 48.4168 114.194 48.6046C114.419 48.7892 114.696 48.8816 115.025 48.8816ZM119.785 50.2665V43.1756H122.809C123.683 43.1756 124.374 43.3418 124.881 43.6742C125.389 44.0066 125.643 44.479 125.643 45.0914C125.643 45.4761 125.5 45.7962 125.214 46.0517C124.928 46.3071 124.531 46.4795 124.023 46.5687C124.447 46.5995 124.809 46.6964 125.108 46.8595C125.409 47.0196 125.638 47.2273 125.795 47.4828C125.955 47.7382 126.036 48.0214 126.036 48.3322C126.036 48.7354 125.928 49.0816 125.712 49.3709C125.5 49.6602 125.188 49.8818 124.775 50.0357C124.366 50.1896 123.866 50.2665 123.275 50.2665H119.785ZM121.618 48.7938H123.275C123.549 48.7938 123.763 48.7292 123.917 48.6C124.074 48.4676 124.152 48.2876 124.152 48.0598C124.152 47.8075 124.074 47.6089 123.917 47.4643C123.763 47.3197 123.549 47.2473 123.275 47.2473H121.618V48.7938ZM121.618 46.0932H122.85C123.047 46.0932 123.215 46.0655 123.353 46.0101C123.495 45.9516 123.603 45.8685 123.676 45.7608C123.753 45.6531 123.792 45.5254 123.792 45.3777C123.792 45.1591 123.704 44.9883 123.529 44.8652C123.353 44.7421 123.113 44.6806 122.809 44.6806H121.618V46.0932ZM130.479 50.405C129.753 50.405 129.128 50.2511 128.605 49.9433C128.084 49.6325 127.684 49.2016 127.404 48.6507C127.127 48.0998 126.989 47.4658 126.989 46.7487C126.989 46.0224 127.129 45.3853 127.409 44.8375C127.692 44.2866 128.094 43.8573 128.614 43.5495C129.134 43.2387 129.753 43.0833 130.47 43.0833C131.088 43.0833 131.63 43.1956 132.095 43.4203C132.559 43.6449 132.927 43.9604 133.198 44.3666C133.469 44.7729 133.618 45.2499 133.646 45.7978H131.79C131.738 45.4438 131.599 45.1591 131.374 44.9437C131.153 44.7252 130.862 44.6159 130.502 44.6159C130.197 44.6159 129.931 44.699 129.703 44.8652C129.479 45.0283 129.303 45.2669 129.177 45.5808C129.051 45.8947 128.988 46.2748 128.988 46.721C128.988 47.1735 129.049 47.5582 129.172 47.8752C129.299 48.1922 129.476 48.4338 129.703 48.6C129.931 48.7661 130.197 48.8492 130.502 48.8492C130.727 48.8492 130.928 48.8031 131.107 48.7107C131.288 48.6184 131.438 48.4845 131.555 48.3091C131.675 48.1306 131.753 47.9167 131.79 47.6674H133.646C133.615 48.2091 133.467 48.6861 133.203 49.0985C132.941 49.5079 132.579 49.8279 132.118 50.0588C131.656 50.2896 131.11 50.405 130.479 50.405ZM134.905 50.2665V43.1756H136.872V45.927H137.426L139.355 43.1756H141.663L139.157 46.6933L141.691 50.2665H139.355L137.606 47.7505H136.872V50.2665H134.905ZM144.544 50.4004C144.092 50.4004 143.689 50.3219 143.335 50.1649C142.981 50.0049 142.701 49.7695 142.494 49.4586C142.291 49.1447 142.19 48.7538 142.19 48.286C142.19 47.8921 142.262 47.5612 142.407 47.2935C142.551 47.0257 142.748 46.8103 142.998 46.6472C143.247 46.4841 143.53 46.361 143.847 46.2779C144.167 46.1948 144.503 46.1363 144.853 46.1024C145.266 46.0594 145.598 46.0193 145.851 45.9824C146.103 45.9424 146.286 45.8839 146.4 45.807C146.514 45.73 146.571 45.6162 146.571 45.4654V45.4377C146.571 45.1453 146.478 44.9191 146.294 44.759C146.112 44.599 145.854 44.519 145.518 44.519C145.164 44.519 144.883 44.5975 144.673 44.7544C144.464 44.9083 144.326 45.1022 144.258 45.3361L142.439 45.1884C142.531 44.7575 142.713 44.3851 142.984 44.0712C143.255 43.7542 143.604 43.5111 144.032 43.3418C144.463 43.1694 144.961 43.0833 145.527 43.0833C145.921 43.0833 146.298 43.1294 146.658 43.2218C147.022 43.3141 147.343 43.4572 147.623 43.6511C147.906 43.845 148.13 44.0943 148.293 44.399C148.456 44.7006 148.537 45.0622 148.537 45.4838V50.2665H146.672V49.2832H146.617C146.503 49.5048 146.351 49.7002 146.16 49.8695C145.969 50.0357 145.74 50.1665 145.472 50.2619C145.204 50.3542 144.895 50.4004 144.544 50.4004ZM145.107 49.0431C145.397 49.0431 145.652 48.9862 145.874 48.8723C146.095 48.7554 146.269 48.5984 146.395 48.4014C146.522 48.2045 146.585 47.9813 146.585 47.7321V46.9796C146.523 47.0196 146.438 47.0565 146.331 47.0904C146.226 47.1211 146.108 47.1504 145.975 47.1781C145.843 47.2027 145.711 47.2258 145.578 47.2473C145.446 47.2658 145.326 47.2827 145.218 47.2981C144.987 47.332 144.786 47.3858 144.613 47.4597C144.441 47.5335 144.307 47.6336 144.212 47.7598C144.116 47.8829 144.069 48.0367 144.069 48.2214C144.069 48.4892 144.166 48.6938 144.359 48.8354C144.556 48.9739 144.806 49.0431 145.107 49.0431ZM154.218 50.2665V44.7175H152.888C152.528 44.7175 152.254 44.8006 152.067 44.9668C151.879 45.133 151.787 45.3299 151.79 45.5577C151.787 45.7885 151.876 45.9839 152.057 46.144C152.242 46.3009 152.513 46.3794 152.87 46.3794H154.873V47.709H152.87C152.264 47.709 151.739 47.6166 151.296 47.432C150.853 47.2473 150.511 46.9903 150.271 46.661C150.031 46.3286 149.912 45.9424 149.915 45.5023C149.912 45.0406 150.031 44.6359 150.271 44.2882C150.511 43.9373 150.854 43.6649 151.3 43.471C151.75 43.2741 152.279 43.1756 152.888 43.1756H156.051V50.2665H154.218ZM149.712 50.2665L151.684 46.5733H153.562L151.596 50.2665H149.712ZM80.7852 66.2665V59.1756H82.7518V61.927H83.3058L85.2355 59.1756H87.5437L85.037 62.6933L87.5714 66.2665H85.2355L83.4858 63.7505H82.7518V66.2665H80.7852ZM90.4244 66.4004C89.972 66.4004 89.5688 66.3219 89.2149 66.1649C88.861 66.0049 88.5809 65.7695 88.3747 65.4586C88.1716 65.1447 88.07 64.7538 88.07 64.286C88.07 63.8921 88.1423 63.5612 88.287 63.2935C88.4316 63.0257 88.6286 62.8103 88.8779 62.6472C89.1272 62.4841 89.4103 62.361 89.7273 62.2779C90.0474 62.1948 90.3829 62.1363 90.7337 62.1024C91.1461 62.0594 91.4785 62.0193 91.7309 61.9824C91.9832 61.9424 92.1664 61.8839 92.2802 61.807C92.3941 61.73 92.451 61.6162 92.451 61.4654V61.4377C92.451 61.1453 92.3587 60.9191 92.1741 60.759C91.9925 60.599 91.7339 60.519 91.3985 60.519C91.0446 60.519 90.7629 60.5975 90.5537 60.7544C90.3444 60.9083 90.2059 61.1022 90.1382 61.3361L88.3193 61.1884C88.4116 60.7575 88.5932 60.3851 88.864 60.0712C89.1349 59.7542 89.4842 59.5111 89.912 59.3418C90.3428 59.1694 90.8414 59.0833 91.4077 59.0833C91.8017 59.0833 92.1787 59.1294 92.5388 59.2218C92.9019 59.3141 93.2235 59.4572 93.5036 59.6511C93.7867 59.845 94.0099 60.0943 94.173 60.399C94.3361 60.7006 94.4177 61.0622 94.4177 61.4838V66.2665H92.5526V65.2832H92.4972C92.3833 65.5048 92.231 65.7002 92.0402 65.8695C91.8494 66.0357 91.6201 66.1665 91.3523 66.2619C91.0846 66.3542 90.7753 66.4004 90.4244 66.4004ZM90.9876 65.0431C91.2769 65.0431 91.5324 64.9862 91.754 64.8723C91.9755 64.7554 92.1494 64.5984 92.2756 64.4014C92.4018 64.2045 92.4649 63.9813 92.4649 63.7321V62.9796C92.4033 63.0196 92.3187 63.0565 92.211 63.0904C92.1063 63.1211 91.9879 63.1504 91.8555 63.1781C91.7232 63.2027 91.5908 63.2258 91.4585 63.2473C91.3262 63.2658 91.2061 63.2827 91.0984 63.2981C90.8676 63.332 90.666 63.3858 90.4937 63.4597C90.3213 63.5335 90.1874 63.6336 90.092 63.7598C89.9966 63.8829 89.9489 64.0367 89.9489 64.2214C89.9489 64.4892 90.0459 64.6938 90.2397 64.8354C90.4367 64.9739 90.686 65.0431 90.9876 65.0431ZM95.9434 68.9256V59.1756H97.8823V60.3666H97.97C98.0562 60.1758 98.1809 59.9819 98.344 59.785C98.5102 59.5849 98.7256 59.4187 98.9903 59.2864C99.258 59.151 99.5904 59.0833 99.9874 59.0833C100.504 59.0833 100.981 59.2187 101.418 59.4895C101.855 59.7573 102.204 60.162 102.466 60.7036C102.728 61.2422 102.858 61.9178 102.858 62.7303C102.858 63.5212 102.731 64.1891 102.475 64.7338C102.223 65.2755 101.878 65.6864 101.441 65.9664C101.007 66.2434 100.521 66.3819 99.9828 66.3819C99.6012 66.3819 99.2765 66.3188 99.0087 66.1926C98.7441 66.0665 98.5271 65.908 98.3578 65.7171C98.1886 65.5232 98.0593 65.3278 97.97 65.1308H97.91V68.9256H95.9434ZM97.8685 62.721C97.8685 63.1427 97.927 63.5105 98.0439 63.8244C98.1609 64.1383 98.3301 64.383 98.5517 64.5584C98.7733 64.7308 99.0426 64.8169 99.3596 64.8169C99.6797 64.8169 99.9505 64.7292 100.172 64.5538C100.393 64.3753 100.561 64.1291 100.675 63.8152C100.792 63.4982 100.85 63.1335 100.85 62.721C100.85 62.3117 100.793 61.9516 100.68 61.6408C100.566 61.3299 100.398 61.0868 100.176 60.9114C99.9551 60.736 99.6828 60.6482 99.3596 60.6482C99.0395 60.6482 98.7687 60.7329 98.5471 60.9022C98.3286 61.0714 98.1609 61.3115 98.0439 61.6223C97.927 61.9332 97.8685 62.2994 97.8685 62.721ZM103.483 60.7221V59.1756H109.909V60.7221H107.624V66.2665H105.75V60.7221H103.483ZM112.869 66.4004C112.417 66.4004 112.014 66.3219 111.66 66.1649C111.306 66.0049 111.026 65.7695 110.82 65.4586C110.616 65.1447 110.515 64.7538 110.515 64.286C110.515 63.8921 110.587 63.5612 110.732 63.2935C110.877 63.0257 111.074 62.8103 111.323 62.6472C111.572 62.4841 111.855 62.361 112.172 62.2779C112.492 62.1948 112.828 62.1363 113.179 62.1024C113.591 62.0594 113.923 62.0193 114.176 61.9824C114.428 61.9424 114.611 61.8839 114.725 61.807C114.839 61.73 114.896 61.6162 114.896 61.4654V61.4377C114.896 61.1453 114.804 60.9191 114.619 60.759C114.437 60.599 114.179 60.519 113.843 60.519C113.489 60.519 113.208 60.5975 112.999 60.7544C112.789 60.9083 112.651 61.1022 112.583 61.3361L110.764 61.1884C110.857 60.7575 111.038 60.3851 111.309 60.0712C111.58 59.7542 111.929 59.5111 112.357 59.3418C112.788 59.1694 113.286 59.0833 113.853 59.0833C114.247 59.0833 114.624 59.1294 114.984 59.2218C115.347 59.3141 115.668 59.4572 115.949 59.6511C116.232 59.845 116.455 60.0943 116.618 60.399C116.781 60.7006 116.863 61.0622 116.863 61.4838V66.2665H114.998V65.2832H114.942C114.828 65.5048 114.676 65.7002 114.485 65.8695C114.294 66.0357 114.065 66.1665 113.797 66.2619C113.529 66.3542 113.22 66.4004 112.869 66.4004ZM113.433 65.0431C113.722 65.0431 113.977 64.9862 114.199 64.8723C114.42 64.7554 114.594 64.5984 114.721 64.4014C114.847 64.2045 114.91 63.9813 114.91 63.7321V62.9796C114.848 63.0196 114.764 63.0565 114.656 63.0904C114.551 63.1211 114.433 63.1504 114.3 63.1781C114.168 63.2027 114.036 63.2258 113.903 63.2473C113.771 63.2658 113.651 63.2827 113.543 63.2981C113.313 63.332 113.111 63.3858 112.939 63.4597C112.766 63.5335 112.632 63.6336 112.537 63.7598C112.442 63.8829 112.394 64.0367 112.394 64.2214C112.394 64.4892 112.491 64.6938 112.685 64.8354C112.882 64.9739 113.131 65.0431 113.433 65.0431Z" fill="#353535"/>
</g>
<defs>
<clipPath id="clip0_63_3259">
<rect width="176" height="106" fill="white"/>
</clipPath>
</defs>
</svg>
