<svg width="176" height="106" viewBox="0 0 176 106" fill="none" xmlns="http://www.w3.org/2000/svg">
<g clip-path="url(#clip0_63_3268)">
<mask id="mask0_63_3268" style="mask-type:luminance" maskUnits="userSpaceOnUse" x="49" y="29" width="79" height="48">
<path d="M127.358 29H49V76.5849H127.358V29Z" fill="white"/>
</mask>
<g mask="url(#mask0_63_3268)">
<path d="M62.1972 29.3525V50.6695H58.6317V32.4201H52.5655V50.6695H49V29.3525H62.1972Z" fill="#353535"/>
<path d="M68.6353 49.8267C67.5672 48.8492 66.7903 47.597 66.3903 46.208C65.8049 44.2587 65.5265 42.2306 65.565 40.1962C65.5272 38.1051 65.8055 36.0202 66.3903 34.0116C66.7832 32.5769 67.559 31.2752 68.6353 30.245C69.5764 29.4407 70.7752 28.9985 72.0151 28.9985C73.2549 28.9985 74.4537 29.4407 75.3948 30.245C76.4769 31.2659 77.2515 32.5676 77.6315 34.0034C78.2172 36.0146 78.4955 38.1023 78.4569 40.1962C78.4952 42.2333 78.2168 44.264 77.6315 46.2162C77.2417 47.6059 76.4699 48.8592 75.4031 49.8349C74.4434 50.6059 73.2478 51.0263 72.0151 51.0263C70.7823 51.0263 69.5867 50.6059 68.6271 49.8349L68.6353 49.8267ZM69.5101 44.4316C69.6496 45.3612 69.9934 46.2486 70.5171 47.0304C70.682 47.2766 70.9036 47.4797 71.1635 47.6228C71.4235 47.7659 71.7141 47.8448 72.011 47.8528C72.894 47.8528 73.5873 47.2114 74.0991 45.9284C74.6912 44.0692 74.9483 42.1201 74.8584 40.1715C74.881 38.6891 74.765 37.2078 74.5117 35.7469C74.3786 34.7863 74.0379 33.866 73.5131 33.0494C73.3658 32.7818 73.149 32.5586 72.8855 32.4031C72.622 32.2476 72.3213 32.1656 72.0151 32.1656C71.7088 32.1656 71.4081 32.2476 71.1446 32.4031C70.8811 32.5586 70.6643 32.7818 70.5171 33.0494C69.9986 33.8669 69.6557 34.7826 69.5101 35.7387C69.2538 37.1966 69.135 38.6751 69.1553 40.155C69.1327 41.5887 69.2516 43.0211 69.5101 44.4316Z" fill="#353535"/>
<path d="M90.2324 29.3525V37.5273H88.3424C87.6574 37.5648 86.9731 37.4408 86.3451 37.1655C85.8495 36.9033 85.4698 36.4664 85.2804 35.9401C85.0283 35.2078 84.9136 34.4356 84.942 33.662V29.3525H81.3765V33.6455C81.2729 35.4974 81.8282 37.3263 82.9447 38.8103C83.531 39.4592 84.2577 39.9667 85.0699 40.2944C85.8821 40.6221 86.7584 40.7614 87.6326 40.7019H90.2324V50.6695H93.7979V29.3525H90.2324Z" fill="#353535"/>
<path d="M109.436 32.4201H105.252V50.6695H101.686V32.4201H97.502V29.3525H109.436V32.4201Z" fill="#353535"/>
<path d="M116.619 29.349H119.475C120.651 29.2856 121.821 29.5719 122.834 30.1714C123.718 30.7602 124.405 31.5995 124.807 32.5811C125.298 33.7988 125.606 35.0817 125.723 36.3888L127.373 50.6248H123.808L122.653 40.6818H116.602V50.666H113.037V29.349H116.619ZM116.619 37.6553H122.314L122.166 36.4299C122.1 35.6425 121.936 34.8663 121.678 34.119C121.498 33.6161 121.144 33.1935 120.68 32.9265C120.081 32.6405 119.419 32.5103 118.757 32.5482H116.619V37.6553Z" fill="#353535"/>
<path d="M52.9286 54.9138C54.1174 54.8824 55.2907 55.1876 56.3125 55.7938C57.3143 56.4292 58.0953 57.3567 58.5492 58.4502C59.129 59.8435 59.4101 61.3422 59.3745 62.8501C59.4112 64.2764 59.1557 65.6951 58.6235 67.0197C58.2292 68.0372 57.5918 68.9433 56.7665 69.6597C56.2084 70.1836 55.4847 70.4976 54.7196 70.5479C54.3233 70.5755 53.9258 70.5163 53.555 70.3741C53.1842 70.232 52.8493 70.0106 52.5737 69.7255V76.2308H49V54.9138H52.9286ZM52.7718 65.9506C52.8597 66.3316 53.0412 66.6848 53.3 66.9786C53.3843 67.082 53.4898 67.1662 53.6093 67.2258C53.7289 67.2853 53.8598 67.3188 53.9933 67.324C54.3066 67.3067 54.6016 67.1715 54.8186 66.9457C55.152 66.6005 55.3907 66.1757 55.5119 65.7121C55.7124 65.0034 55.8043 64.2687 55.7843 63.5327C55.7843 61.5424 55.5449 60.1361 55.0497 59.3137C54.847 58.9337 54.5418 58.6176 54.1685 58.4011C53.7952 58.1846 53.3686 58.0763 52.9369 58.0883H52.5737V64.3058C52.5627 64.8605 52.6294 65.4141 52.7718 65.9506Z" fill="#353535"/>
<path d="M63.3112 75.3775C62.2384 74.4006 61.4608 73.1444 61.0662 71.7506C60.4802 69.8014 60.2018 67.7733 60.2409 65.7388C60.2031 63.6504 60.4813 61.5682 61.0662 59.5625C61.4557 58.1288 62.2321 56.8289 63.3112 55.804C64.2522 54.9997 65.4511 54.5576 66.6909 54.5576C67.9307 54.5576 69.1296 54.9997 70.0707 55.804C71.148 56.8255 71.9219 58.1231 72.3073 59.5543C72.8924 61.5656 73.1706 63.6532 73.1327 65.7471C73.1857 67.7821 72.9211 69.813 72.3486 71.7671C71.9609 73.1576 71.1888 74.4115 70.1202 75.3857C69.1631 76.1625 67.9665 76.5867 66.7322 76.5867C65.4978 76.5867 64.3012 76.1625 63.3442 75.3857L63.3112 75.3775ZM64.1942 69.9907C64.339 70.8972 64.6797 71.7615 65.1929 72.5238C65.3562 72.7677 65.5753 72.9694 65.8321 73.1124C66.089 73.2553 66.3762 73.3355 66.6703 73.3462C67.5506 73.3462 68.2439 72.7047 68.7502 71.4217C69.3504 69.5641 69.6104 67.6141 69.5177 65.6648C69.5402 64.1824 69.4241 62.7012 69.171 61.2402C69.0341 60.2857 68.6936 59.3715 68.1724 58.5592C68.0252 58.2916 67.8084 58.0683 67.5449 57.9128C67.2813 57.7574 66.9807 57.6753 66.6744 57.6753C66.3682 57.6753 66.0675 57.7574 65.804 57.9128C65.5405 58.0683 65.3237 58.2916 65.1764 58.5592C64.6569 59.4008 64.3222 60.3426 64.1942 61.3224C63.9387 62.7804 63.8199 64.2589 63.8394 65.7388C63.8186 67.1642 63.9375 68.5883 64.1942 69.9907Z" fill="#353535"/>
<path d="M75.5689 59.7275C76.4392 58.1213 77.8091 56.8398 79.4728 56.0759C81.4205 55.2333 83.5325 54.8343 85.6546 54.9081V58.1073C83.1125 58.1073 81.173 58.7406 79.8277 60.0235C78.4824 61.3065 77.8056 63.2063 77.8056 65.7805C77.8056 68.3546 78.4741 70.057 79.8195 71.2577C81.1647 72.4585 83.1208 73.067 85.6546 73.067V76.2251C82.0066 76.2251 79.1921 75.3479 77.2114 73.5934C75.2305 71.8389 74.2401 69.2209 74.2401 65.7393C74.1617 63.6553 74.6191 61.5859 75.5689 59.7275Z" fill="#353535"/>
<path d="M87.5685 59.7329C88.4393 58.1242 89.8128 56.8423 91.4806 56.0814C93.4153 55.2311 95.5157 54.8209 97.6294 54.8807V58.0799C95.0956 58.0799 93.156 58.7131 91.8024 59.9961C90.4489 61.2791 89.7804 63.2117 89.7804 65.7448C89.7804 68.2778 90.4489 70.0213 91.7942 71.222C93.1395 72.4228 95.0956 73.0314 97.6211 73.0314V76.2305C93.9731 76.2305 91.1587 75.3533 89.1779 73.5988C87.1971 71.8444 86.2067 69.2263 86.2067 65.7448C86.1384 63.6579 86.6072 61.5883 87.5685 59.7329Z" fill="#353535"/>
<path d="M102.87 54.913V62.5203L108.928 57.4296L112.493 54.436V76.23H108.928V61.7226L102.87 66.8133V76.23H99.2959V54.913H102.87Z" fill="#353535"/>
<path d="M117.736 54.9083V62.5157L123.794 57.4249L127.342 54.4478V76.2253H123.777V61.7179L117.719 66.8086V76.2253H114.17V54.9083H117.736Z" fill="#353535"/>
</g>
</g>
<defs>
<clipPath id="clip0_63_3268">
<rect width="176" height="106" fill="white"/>
</clipPath>
</defs>
</svg>
