<svg width="166" height="106" viewBox="0 0 166 106" fill="none" xmlns="http://www.w3.org/2000/svg">
<g clip-path="url(#clip0_63_3233)">
<path d="M127.016 40.8418V55.2663H121.845V45.1478H116.866V55.2663H111.695V40.8408L127.016 40.8418Z" fill="#353535"/>
<path fill-rule="evenodd" clip-rule="evenodd" d="M101.074 55.7815C105.703 55.7815 109.141 52.9544 109.141 48.669C109.141 44.5209 106.605 41.8275 102.366 41.8275C100.41 41.8275 98.7955 42.5134 97.5797 43.6968C97.87 41.2508 99.9467 39.465 102.233 39.465C102.761 39.465 106.734 39.4567 106.734 39.4567L108.98 35.1743C108.98 35.1743 103.992 35.2874 101.674 35.2874C96.3762 35.3798 92.7979 40.176 92.7979 46.0008C92.7979 52.7877 96.2879 55.7815 101.074 55.7815ZM101.102 45.6202C102.821 45.6202 104.013 46.7452 104.013 48.6686C104.013 50.3992 102.954 51.826 101.102 51.83C99.3311 51.83 98.1395 50.5084 98.1395 48.6981C98.1395 46.7742 99.3311 45.6202 101.102 45.6202Z" fill="#353535"/>
<path d="M88.5884 50.4371C88.5884 50.4371 87.3671 51.1382 85.5427 51.2709C83.4462 51.3329 81.5779 50.0137 81.5779 47.67C81.5779 45.3837 83.2265 44.0734 85.4903 44.0734C86.8784 44.0734 88.7148 45.0317 88.7148 45.0317C88.7148 45.0317 90.0584 42.5758 90.7544 41.3476C89.4799 40.3854 87.7823 39.8579 85.8077 39.8579C80.8245 39.8579 76.9648 43.094 76.9648 47.641C76.9648 52.2459 80.5925 55.4068 85.8077 55.3109C87.2654 55.2569 89.2766 54.7475 90.5023 53.9633L88.5884 50.4371Z" fill="#353535"/>
<path d="M25 36.8423L32.1735 49.6133V57.4033L25.0084 70.1493L25 36.8423Z" fill="#5B57A2"/>
<path d="M52.543 44.9663L59.2648 40.8628L73.0213 40.8501L52.543 53.3453V44.9663Z" fill="#D90751"/>
<path d="M52.5048 36.7671L52.5428 53.6755L45.3525 49.2751V24L52.5048 36.7671Z" fill="#FAB718"/>
<path d="M73.0212 40.8499L59.2641 40.8627L52.5048 36.7671L45.3525 24L73.0212 40.8499Z" fill="#ED6F26"/>
<path d="M52.5428 70.22V62.0165L45.3525 57.6997L45.3565 82.9999L52.5428 70.22Z" fill="#63B22F"/>
<path d="M59.2483 66.154L32.173 49.6133L25 36.8423L72.9925 66.1373L59.2483 66.154Z" fill="#1487C9"/>
<path d="M45.3574 82.9999L52.5427 70.22L59.2478 66.1539L72.992 66.1372L45.3574 82.9999Z" fill="#017F36"/>
<path d="M25.0078 70.1493L45.4112 57.7003L38.5516 53.5083L32.1729 57.4033L25.0078 70.1493Z" fill="#984995"/>
<path d="M81.579 64.9739C81.4211 65.1745 81.2132 65.3259 80.964 65.4282C80.7082 65.5319 80.4345 65.5847 80.1583 65.5835C79.8837 65.5873 79.6106 65.5416 79.3522 65.4488C79.1202 65.3649 78.9081 65.234 78.7293 65.0643C78.5527 64.8944 78.4141 64.6894 78.3225 64.4625C78.2233 64.2139 78.1738 63.9483 78.1769 63.6808C78.1769 63.4153 78.2228 63.1695 78.3181 62.9369C78.4053 62.7118 78.538 62.507 78.708 62.3351C78.8775 62.1644 79.0778 62.0271 79.2984 61.9305C79.527 61.8321 79.7763 61.779 80.0502 61.779C80.3454 61.779 80.6194 61.8159 80.8687 61.8892C81.118 61.9629 81.3297 62.0858 81.504 62.2579L81.2009 62.7692C81.0543 62.6369 80.8817 62.5365 80.6939 62.4742C80.5153 62.4169 80.3287 62.3881 80.1411 62.3887C79.9757 62.3887 79.8177 62.4211 79.6642 62.4821C79.5129 62.543 79.3747 62.6321 79.257 62.7447C79.1366 62.8603 79.0418 62.9996 78.9786 63.1537C78.9069 63.3215 78.8716 63.5024 78.8749 63.6847C78.8749 63.8858 78.9119 64.0658 78.9825 64.2206C79.0536 64.3809 79.1489 64.5156 79.2688 64.6302C79.3898 64.7453 79.5304 64.8308 79.6928 64.8883C79.8576 64.9496 80.0323 64.9801 80.2082 64.9783C80.4323 64.9783 80.6362 64.9331 80.8104 64.847C80.9831 64.764 81.1382 64.6488 81.2675 64.5078L81.579 64.9739ZM82.4345 65.4975V61.8567H83.091V64.5692L85.226 61.8567H85.8825V65.498H85.226V62.7855L83.091 65.498L82.4345 65.4975ZM90.2314 64.9739C90.0699 65.1762 89.858 65.3328 89.6168 65.4282C89.3609 65.5318 89.087 65.5846 88.8107 65.5835C88.5363 65.5872 88.2634 65.5416 88.0051 65.4488C87.7729 65.3649 87.5606 65.234 87.3817 65.0643C87.2051 64.8944 87.0666 64.6894 86.9749 64.4625C86.8757 64.2139 86.8262 63.9483 86.8293 63.6808C86.8293 63.4153 86.8752 63.1695 86.9705 62.9369C87.0623 62.7034 87.1951 62.5033 87.3605 62.3351C87.5299 62.1644 87.7302 62.0271 87.9508 61.9305C88.1876 61.8266 88.444 61.775 88.7026 61.779C88.9978 61.779 89.2718 61.8159 89.5211 61.8892C89.7704 61.9629 89.9821 62.0858 90.1569 62.2579L89.8533 62.7692C89.707 62.6368 89.5344 62.5364 89.3468 62.4742C89.1682 62.417 88.9816 62.3881 88.794 62.3887C88.4642 62.3899 88.1474 62.5173 87.9094 62.7447C87.7901 62.8612 87.6954 63.0002 87.631 63.1537C87.5593 63.3215 87.524 63.5024 87.5273 63.6847C87.5273 63.8858 87.5648 64.0658 87.6354 64.2206C87.706 64.3809 87.8013 64.5156 87.9217 64.6302C88.0422 64.7453 88.1833 64.8308 88.3457 64.8883C88.5077 64.9454 88.678 64.9783 88.8606 64.9783C89.0852 64.9783 89.2846 64.9331 89.4628 64.847C89.6355 64.764 89.7907 64.6488 89.9199 64.5078L90.2314 64.9739ZM90.5681 61.8567H93.9366V62.5033H92.5826V65.4975H91.9261V62.5033H90.572V61.8567H90.5681Z" fill="#353535"/>
<path fill-rule="evenodd" clip-rule="evenodd" d="M97.0023 65.4614C97.2516 65.3837 97.4634 65.2647 97.646 65.1015L97.4466 64.5941C97.3261 64.7008 97.1642 64.7908 96.9692 64.8645C96.7738 64.9383 96.5536 64.9746 96.3127 64.9746C95.9514 64.9746 95.6522 64.8807 95.4153 64.6885C95.1783 64.4958 95.05 64.2263 95.0204 63.8822H97.8622C97.8924 63.7383 97.9063 63.5915 97.9037 63.4446C97.9068 63.2111 97.86 62.9797 97.7665 62.7656C97.6814 62.567 97.5572 62.3874 97.4012 62.2375C97.243 62.0891 97.0565 61.9737 96.8527 61.8983C96.6395 61.8159 96.4126 61.7742 96.1839 61.7754C95.8763 61.7754 95.6063 61.8285 95.3694 61.9268C95.146 62.0205 94.944 62.1583 94.7755 62.3319C94.6118 62.5046 94.4861 62.7094 94.4063 62.9332C94.3185 63.1716 94.2749 63.4238 94.2775 63.6776C94.2775 63.9643 94.3268 64.2258 94.4186 64.4594C94.5075 64.6856 94.6434 64.8905 94.8175 65.0607C94.9878 65.2279 95.1951 65.3552 95.4405 65.4452C95.7031 65.5379 95.9802 65.5836 96.2589 65.5799C96.5113 65.5783 96.7619 65.5381 97.0023 65.4614ZM95.3407 62.6589C95.5441 62.475 95.8141 62.385 96.1547 62.385C96.4746 62.385 96.7323 62.4711 96.9194 62.6432C97.1065 62.8148 97.2057 63.0522 97.2225 63.3546H94.9794C95.0112 63.0869 95.1396 62.8393 95.3407 62.6589Z" fill="#353535"/>
<path d="M98.7969 61.8569H99.3952L100.816 63.6613L102.162 61.8569H102.743V65.4982H102.087V62.8432L100.808 64.5325H100.782L99.4535 62.8427V65.4977H98.7969V61.8569Z" fill="#353535"/>
<path fill-rule="evenodd" clip-rule="evenodd" d="M104.529 61.8691C104.33 61.921 104.14 62.0022 103.965 62.11L104.139 62.6262C104.288 62.5525 104.438 62.491 104.588 62.4379C104.737 62.3839 104.928 62.3593 105.157 62.3593C105.339 62.3593 105.485 62.3888 105.597 62.4458C105.709 62.4989 105.792 62.581 105.85 62.6793C105.909 62.7777 105.946 62.9001 105.967 63.0432C105.988 63.1863 105.996 63.3416 105.996 63.5098C105.861 63.4165 105.708 63.3536 105.547 63.3254C105.391 63.2946 105.233 63.2781 105.074 63.2762C104.878 63.2762 104.696 63.3052 104.521 63.3539C104.347 63.4031 104.197 63.4768 104.077 63.5752C103.954 63.6733 103.854 63.7976 103.785 63.939C103.712 64.0938 103.676 64.2631 103.678 64.4341C103.678 64.7901 103.781 65.0684 103.989 65.265C104.197 65.4612 104.471 65.559 104.812 65.559C105.119 65.559 105.365 65.5059 105.551 65.3997C105.738 65.2931 105.888 65.1706 105.995 65.031V65.502H106.61V63.2684C106.61 62.7934 106.507 62.4257 106.295 62.167C106.087 61.9099 105.717 61.7786 105.194 61.7786C104.961 61.7786 104.741 61.8116 104.529 61.8691ZM105.627 64.8191C105.477 64.9253 105.281 64.974 105.041 64.974C104.828 64.974 104.663 64.9209 104.547 64.8186C104.43 64.7124 104.372 64.5728 104.372 64.4007C104.372 64.2994 104.393 64.2133 104.439 64.1352C104.484 64.057 104.547 63.9965 104.617 63.9474C104.694 63.8959 104.78 63.8585 104.87 63.8367C104.966 63.8122 105.061 63.7999 105.161 63.7999C105.486 63.7999 105.763 63.8775 105.992 64.0408V64.5029C105.884 64.6233 105.762 64.7299 105.627 64.8191ZM112.406 60.576C112.539 60.515 112.662 60.4128 112.779 60.2613L112.422 59.75C112.331 59.8729 112.227 59.9585 112.111 60.0037C111.987 60.0518 111.859 60.0873 111.728 60.1099L111.604 60.132C111.495 60.1507 111.38 60.1714 111.255 60.192C111.055 60.2289 110.86 60.2893 110.674 60.372C110.378 60.4988 110.142 60.6704 109.963 60.8872C109.784 61.1041 109.643 61.3494 109.548 61.6198C109.451 61.8938 109.385 62.1778 109.353 62.4665C109.319 62.7615 109.303 63.0432 109.303 63.3131C109.303 63.6612 109.348 63.9759 109.44 64.2581C109.531 64.5408 109.66 64.7778 109.829 64.97C110 65.1667 110.204 65.3142 110.445 65.4204C110.686 65.5266 110.956 65.5797 111.259 65.5797C111.537 65.5797 111.795 65.5266 112.028 65.4283C112.252 65.3338 112.455 65.1963 112.626 65.0236C112.792 64.8555 112.925 64.6549 113.016 64.4302C113.111 64.202 113.159 63.957 113.158 63.7099C113.158 63.436 113.116 63.1868 113.037 62.9655C112.964 62.7546 112.848 62.561 112.697 62.3971C112.544 62.236 112.358 62.1101 112.152 62.0284C111.925 61.9392 111.682 61.8948 111.438 61.8976C111.28 61.8976 111.126 61.9183 110.977 61.9591C110.831 61.9999 110.692 62.0591 110.561 62.1351C110.434 62.2073 110.318 62.2966 110.216 62.4006C110.117 62.5033 110.034 62.6179 109.976 62.7487H109.959C109.971 62.5756 109.995 62.4034 110.029 62.2334C110.067 62.0574 110.121 61.8892 110.192 61.7299C110.262 61.5706 110.354 61.4271 110.466 61.2963C110.586 61.1643 110.733 61.0596 110.898 60.9895C111.079 60.9037 111.27 60.8419 111.467 60.8056L111.597 60.782C111.727 60.7584 111.851 60.7358 111.969 60.7112C112.127 60.6788 112.272 60.637 112.406 60.576ZM110.096 64.0742C110.031 63.8676 110.001 63.6522 110.005 63.436C110.033 63.3119 110.083 63.1941 110.154 63.0884C110.227 62.976 110.319 62.8763 110.424 62.7934C110.668 62.6031 110.97 62.5008 111.28 62.5033C111.666 62.5033 111.957 62.6213 112.16 62.8554C112.364 63.0924 112.464 63.3864 112.464 63.7428C112.464 63.9188 112.43 64.0786 112.373 64.2256C112.316 64.3707 112.232 64.503 112.123 64.6148C112.015 64.7265 111.885 64.8154 111.741 64.8761C111.592 64.9415 111.429 64.9744 111.247 64.9744C111.064 64.9744 110.898 64.9376 110.744 64.8638C110.592 64.7916 110.457 64.6868 110.349 64.557C110.237 64.4124 110.151 64.2489 110.096 64.0742ZM118.192 61.8568H117.536V65.4981H118.192V61.8568ZM114.104 61.8568H114.761V62.9493H115.368C115.654 62.9493 115.886 62.9861 116.073 63.0555C116.261 63.1253 116.41 63.2192 116.522 63.3338C116.634 63.4483 116.713 63.5835 116.759 63.7345C116.805 63.8859 116.83 64.0413 116.83 64.205C116.83 64.3687 116.805 64.5246 116.751 64.6799C116.701 64.8353 116.613 64.97 116.497 65.0929C116.381 65.2159 116.223 65.3142 116.023 65.3879C115.824 65.4612 115.583 65.502 115.293 65.502H114.1V61.8568H114.104ZM114.761 63.558V64.8923H115.239C115.567 64.8923 115.799 64.8353 115.932 64.7203C116.066 64.6057 116.132 64.4425 116.132 64.2256C116.132 64.0044 116.061 63.8372 115.928 63.7222C115.791 63.6076 115.563 63.5501 115.247 63.5501H114.761V63.558Z" fill="#353535"/>
<path d="M122.533 64.9739C122.375 65.1745 122.167 65.3259 121.918 65.4282C121.662 65.5318 121.389 65.5846 121.112 65.5836C120.838 65.5873 120.565 65.5416 120.306 65.4488C120.074 65.365 119.862 65.2341 119.683 65.0644C119.507 64.8943 119.368 64.6893 119.276 64.4626C119.177 64.2138 119.128 63.9483 119.131 63.6808C119.131 63.4153 119.176 63.1695 119.272 62.9369C119.359 62.7118 119.492 62.507 119.662 62.3351C119.829 62.163 120.027 62.0327 120.253 61.9305C120.489 61.8266 120.746 61.7749 121.004 61.779C121.299 61.779 121.573 61.8159 121.823 61.8892C122.072 61.9629 122.284 62.0858 122.458 62.2579L122.155 62.7693C122.008 62.6369 121.836 62.5365 121.648 62.4743C121.469 62.4169 121.283 62.3881 121.095 62.3887C120.93 62.3887 120.772 62.4212 120.618 62.4821C120.467 62.543 120.329 62.6321 120.211 62.7447C120.092 62.861 119.997 63.0001 119.933 63.1537C119.861 63.3215 119.826 63.5024 119.829 63.6847C119.829 63.8858 119.866 64.0658 119.937 64.2207C120.007 64.3809 120.103 64.5157 120.223 64.6302C120.344 64.7453 120.485 64.8308 120.647 64.8883C120.809 64.9454 120.98 64.9783 121.162 64.9783C121.37 64.981 121.576 64.9361 121.765 64.847C121.937 64.764 122.092 64.6488 122.222 64.5078L122.533 64.9739ZM122.869 61.8567H126.238V62.5033H124.884V65.4975H124.227V62.5033H122.874V61.8567H122.869Z" fill="#353535"/>
<path fill-rule="evenodd" clip-rule="evenodd" d="M127.609 61.8573H126.952V67.1181H127.609V65.3304C127.742 65.4165 127.9 65.4779 128.082 65.5187C128.265 65.5595 128.456 65.5797 128.651 65.5797C128.942 65.5797 129.204 65.5266 129.441 65.4287C129.668 65.3319 129.874 65.1916 130.047 65.0157C130.219 64.8372 130.351 64.6253 130.437 64.3933C130.529 64.1524 130.575 63.8943 130.575 63.6204C130.575 63.35 130.533 63.1007 130.454 62.8755C130.38 62.6617 130.264 62.4644 130.114 62.2949C129.966 62.1295 129.783 61.9994 129.577 61.9143C129.353 61.8183 129.111 61.7708 128.867 61.7752C128.61 61.7752 128.369 61.8243 128.14 61.9227C127.912 62.021 127.733 62.139 127.609 62.2865V61.8573ZM128.066 62.5323C128.253 62.434 128.456 62.3848 128.677 62.3848C128.868 62.3848 129.038 62.4134 129.192 62.4748C129.341 62.5363 129.466 62.6223 129.57 62.7369C129.674 62.8514 129.753 62.9827 129.802 63.1376C129.856 63.2929 129.881 63.4611 129.881 63.645C129.881 63.8416 129.848 64.0172 129.79 64.1809C129.736 64.3361 129.649 64.4783 129.536 64.5983C129.423 64.7169 129.286 64.8102 129.134 64.8722C128.964 64.9429 128.781 64.9778 128.598 64.9744C128.419 64.9744 128.253 64.9543 128.095 64.9135C127.922 64.8666 127.758 64.7919 127.609 64.6922V62.8878C127.725 62.7492 127.879 62.6307 128.066 62.5323ZM135.609 61.8568H134.952V65.4981H135.609V61.8568ZM131.517 61.8568H132.174V62.9493H132.78C133.066 62.9493 133.299 62.9861 133.486 63.0555C133.674 63.1253 133.823 63.2192 133.935 63.3338C134.047 63.4483 134.126 63.5835 134.172 63.7345C134.218 63.8859 134.242 64.0413 134.242 64.205C134.242 64.3687 134.218 64.5246 134.163 64.6799C134.114 64.8353 134.027 64.97 133.91 65.0929C133.794 65.2159 133.636 65.3142 133.436 65.3879C133.237 65.4612 132.996 65.502 132.706 65.502H131.513V61.8568H131.517ZM132.178 63.558V64.8923H132.656C132.984 64.8923 133.217 64.8353 133.35 64.7203C133.483 64.6057 133.549 64.4425 133.549 64.2256C133.549 64.0044 133.479 63.8372 133.346 63.7222C133.209 63.6076 132.98 63.5501 132.665 63.5501H132.178V63.558Z" fill="#353535"/>
<path d="M138.758 63.6122L140.162 65.4982H139.356L138.271 64.0252L137.171 65.4982H136.407L137.802 63.6446L136.489 61.8569H137.296L138.297 63.2316L139.314 61.8569H140.079L138.758 63.6122ZM81.0929 69.9984H79.0784V73.034H78.4219V69.3932H81.749V73.034H81.0924L81.0929 69.9984ZM85.4749 70.0392H84.1791L84.1372 70.6529C84.0917 71.1725 84.0295 71.59 83.9422 71.9086C83.8548 72.2282 83.7467 72.4735 83.6223 72.6451C83.4979 72.8172 83.3523 72.9352 83.1859 72.9932C83.0143 73.0552 82.8329 73.0856 82.6503 73.0832L82.6005 72.4528C82.6852 72.4548 82.7691 72.4366 82.8453 72.3997C82.9371 72.3589 83.028 72.269 83.1153 72.1342C83.2027 71.9946 83.2817 71.7984 83.3523 71.5442C83.4229 71.2871 83.4688 70.9518 83.4935 70.5299L83.5601 69.3966H86.1314V73.0379H85.4749V70.0392Z" fill="#353535"/>
<path fill-rule="evenodd" clip-rule="evenodd" d="M87.9015 69.4015C87.6892 69.4585 87.4982 69.5402 87.3362 69.6424L87.511 70.1582C87.6606 70.0844 87.8101 70.023 87.9592 69.9699C88.1088 69.9168 88.2998 69.8922 88.5284 69.8922C88.711 69.8922 88.8566 69.9207 88.9687 69.9777C89.0812 70.0313 89.1642 70.1129 89.2224 70.2113C89.2802 70.3096 89.3177 70.4325 89.3384 70.5751C89.3592 70.7187 89.3675 70.874 89.3675 71.0417C89.2331 70.9485 89.0797 70.8858 88.9183 70.8578C88.7626 70.8269 88.6043 70.8105 88.4454 70.8087C88.2505 70.8087 88.0673 70.8372 87.8926 70.8863C87.7183 70.9355 87.5687 71.0092 87.4483 71.1076C87.3252 71.2057 87.2257 71.33 87.1571 71.4714C87.0842 71.6263 87.0476 71.7955 87.0499 71.9665C87.0499 72.322 87.1536 72.6008 87.3609 72.797C87.5683 72.9931 87.8432 73.0915 88.1838 73.0915C88.4913 73.0915 88.7362 73.0384 88.9233 72.9317C89.1099 72.8255 89.2589 72.7026 89.3675 72.5629V73.0339H89.9826V70.8003C89.9826 70.3258 89.8785 69.9576 89.6667 69.6999C89.4589 69.4418 89.0891 69.3115 88.5659 69.3115C88.3414 69.3117 88.1179 69.3423 87.9015 69.4015ZM89.0023 72.3505C88.8532 72.4572 88.6577 72.5064 88.4168 72.5064C88.2006 72.5064 88.0387 72.4533 87.9227 72.3505C87.8062 72.2443 87.7479 72.1047 87.7479 71.9336C87.7479 71.8313 87.7687 71.7453 87.8146 71.6676C87.86 71.5899 87.9227 71.5285 87.9933 71.4793C88.0639 71.4301 88.1507 71.3932 88.2465 71.3687C88.3415 71.3442 88.4392 71.332 88.5373 71.3323C88.8611 71.3323 89.1395 71.41 89.368 71.5732V72.0354C89.2601 72.1554 89.1372 72.2616 89.0023 72.3505Z" fill="#353535"/>
<path d="M90.626 69.3931H93.9951V70.0391H92.6405V73.0334H91.984V70.0391H90.6305V69.3931H90.626Z" fill="#353535"/>
<path fill-rule="evenodd" clip-rule="evenodd" d="M97.0604 72.9971C97.3097 72.9194 97.5215 72.8004 97.7041 72.6372L97.5047 72.1298C97.3842 72.2365 97.2223 72.3265 97.0268 72.4002C96.8319 72.474 96.6117 72.5104 96.3703 72.5104C96.0095 72.5104 95.7103 72.4164 95.4734 72.2242C95.2364 72.032 95.1081 71.762 95.0785 71.4179H97.9203C97.949 71.2915 97.9618 71.1475 97.9618 70.9803C97.9618 70.731 97.9159 70.5058 97.8246 70.3013C97.7395 70.1027 97.6151 69.9233 97.4588 69.7737C97.3009 69.625 97.1145 69.5095 96.9108 69.434C96.6976 69.3516 96.4707 69.3099 96.242 69.3111C95.9344 69.3111 95.6644 69.3642 95.4275 69.4625C95.204 69.556 95.0019 69.6939 94.8336 69.8676C94.6698 70.0404 94.5437 70.2452 94.4634 70.469C94.376 70.7074 94.3326 70.9595 94.3351 71.2133C94.3351 71.5 94.3844 71.7615 94.4762 71.9951C94.5681 72.2281 94.7048 72.4287 94.8751 72.5964C95.0454 72.7641 95.2532 72.8909 95.4986 72.9809C95.761 73.0738 96.038 73.1196 96.3165 73.1161C96.5618 73.1161 96.8111 73.0748 97.0604 72.9971ZM95.3949 70.1907C95.5983 70.0068 95.8683 69.9168 96.2089 69.9168C96.5332 69.9168 96.7864 70.0068 96.9735 70.1744C97.1601 70.3465 97.2598 70.5835 97.2766 70.8864H95.0336C95.0652 70.6185 95.1937 70.3712 95.3949 70.1907ZM98.2817 69.3932H99.1125L100.379 71.1484L99.0251 73.034H98.2195L99.6396 71.1479L98.2817 69.3932ZM100.541 69.3932H101.198V73.034H100.541V69.3932ZM103.544 73.034L102.099 71.1479L103.449 69.3927H102.635L101.359 71.1479L102.73 73.034H103.544ZM106.544 72.9971C106.793 72.9194 107.005 72.8004 107.187 72.6372L106.988 72.1298C106.867 72.2365 106.706 72.3265 106.511 72.4002C106.315 72.474 106.095 72.5104 105.854 72.5104C105.493 72.5104 105.194 72.4164 104.957 72.2242C104.72 72.032 104.591 71.762 104.562 71.4179H107.404C107.433 71.2915 107.445 71.1475 107.445 70.9803C107.445 70.731 107.4 70.5058 107.308 70.3013C107.223 70.1028 107.098 69.9234 106.942 69.7737C106.784 69.625 106.598 69.5095 106.394 69.434C106.181 69.3516 105.954 69.3099 105.725 69.3111C105.418 69.3111 105.148 69.3642 104.911 69.4625C104.687 69.5561 104.486 69.694 104.317 69.8676C104.153 70.0402 104.027 70.245 103.947 70.469C103.86 70.7073 103.816 70.9595 103.819 71.2133C103.819 71.5 103.868 71.7615 103.96 71.9951C104.051 72.2281 104.188 72.4287 104.359 72.5964C104.529 72.7641 104.736 72.8909 104.982 72.9809C105.244 73.0738 105.521 73.1196 105.8 73.1161C106.053 73.1142 106.303 73.0741 106.544 72.9971ZM104.878 70.1907C105.082 70.0068 105.352 69.9168 105.693 69.9168C106.012 69.9168 106.27 70.0068 106.457 70.1744C106.644 70.3465 106.743 70.5835 106.76 70.8864H104.517C104.548 70.6185 104.677 70.3712 104.878 70.1907ZM110.108 68.1699C109.722 68.1699 109.51 67.957 109.476 67.5317H108.858C108.858 67.695 108.887 67.8425 108.941 67.9816C108.995 68.1208 109.074 68.2392 109.178 68.3376C109.281 68.4359 109.415 68.5136 109.568 68.5746C109.722 68.636 109.9 68.6645 110.104 68.6645C110.276 68.6679 110.447 68.6373 110.607 68.5746C110.756 68.5175 110.881 68.4359 110.989 68.3376C111.095 68.2374 111.178 68.1161 111.234 67.9816C111.292 67.8425 111.321 67.695 111.321 67.5317H110.706C110.677 67.957 110.473 68.1699 110.108 68.1699ZM108.334 69.3927V73.034H108.991L111.126 70.3215V73.034H111.782V69.3927H111.126L108.991 72.1052V69.3927H108.334Z" fill="#353535"/>
</g>
<defs>
<clipPath id="clip0_63_3233">
<rect width="166" height="106" fill="white"/>
</clipPath>
</defs>
</svg>
