<svg width="177" height="106" viewBox="0 0 177 106" fill="none" xmlns="http://www.w3.org/2000/svg">
<g clip-path="url(#clip0_63_3204)">
<path fill-rule="evenodd" clip-rule="evenodd" d="M48.1055 61.9803H42.9675C34.9532 61.9803 40.7756 44.9733 47.5229 44.9733H55.6405C56.9417 44.9733 59.2365 45.2125 60.3671 41.9962L62.1138 37H50.9823C44.9542 37 40.2618 39.1214 36.8711 42.6807C31.014 48.7717 29.0279 58.2848 30.4319 62.8356C31.7677 67.0449 35.3983 69.8164 41.0837 69.8848L45.5021 69.9192H50.9482L52.284 65.9156C53.2771 63.0753 51.0506 61.9803 48.1055 61.9803ZM110.646 54.9312L112.325 49.4902H94.4118C91.4323 49.4902 90.0963 50.3115 89.5824 52.0225L87.9042 57.4635H105.817C108.797 57.4635 110.133 56.6422 110.646 54.9312ZM85.233 64.5126L83.5544 69.9532H101.467C104.413 69.9532 105.783 69.1323 106.297 67.4214L107.975 61.9803H90.062C87.1168 61.9803 85.7807 62.8016 85.233 64.5126ZM114.825 42.475L116.504 37.0344H98.5904C95.6109 37.0344 94.2748 37.8552 93.7609 39.5662L92.0828 45.0073H109.996C112.942 45.0073 114.277 44.186 114.825 42.475ZM87.7672 43.5704C87.014 38.5058 84.3081 37.0344 77.732 37.0344H65.7444L58.7573 57.4635H63.1757C65.8126 57.4635 67.1484 57.4975 68.553 53.7335L71.4639 44.9733H75.9165C79.7184 44.9733 78.862 49.7298 76.9442 54.3491C75.2315 58.4216 72.2518 62.0143 68.6553 62.0143H61.2231C58.2434 62.0143 56.8735 62.8356 56.3255 64.5466L54.4759 69.9876H59.9215L65.2647 69.9532C69.9912 69.9192 73.8616 69.5772 78.3829 65.5047C83.1776 61.1591 88.7264 50.0034 87.7672 43.5704ZM147.98 37H137.602L127.84 47.3683C126.71 48.5661 125.545 49.7638 124.415 51.1667H124.312L129.176 37H120.716L109.311 69.9532H117.771L121.401 59.5849L125.168 56.4025L128.149 65.7788C129.073 68.6875 130.033 69.9532 132.088 69.9532H138.56L131.916 51.5432L147.98 37Z" fill="white"/>
</g>
<defs>
<clipPath id="clip0_63_3204">
<rect width="177" height="106" fill="white"/>
</clipPath>
</defs>
</svg>
