<svg width="512" height="512" viewBox="0 0 512 512" fill="none" xmlns="http://www.w3.org/2000/svg">
<g clip-path="url(#clip0_697_1008)">
<path d="M298.523 27.7651C298.565 27.7282 309.413 18.1302 317.563 13.9077C325.729 9.67719 336.795 6.53845 349.746 5.23389C362.697 3.92942 393.148 10.1929 393.148 10.1929C393.148 10.1929 378.839 16.2136 370.263 21.1899C361.687 26.1663 337.913 45.4039 329.366 54.8501C320.826 64.288 309.765 80.8811 309.746 80.9106L326.596 82.6528C326.517 82.6859 316.607 86.818 311.221 90.9673C305.814 95.1333 302.776 99.4841 298.08 105.54C293.385 111.595 287.085 122.168 287.085 122.168L315.067 113.584C315.067 113.584 304.033 117.024 297.993 121.095C291.952 125.167 288.887 128.489 284.405 134.416C279.932 140.33 273.17 158.121 273.142 158.196L296.876 147.601C296.876 147.601 287.479 154.124 282.842 159.67C278.212 165.21 269.724 193.928 269.703 194L281.19 180.723C281.19 180.723 286.825 212.181 284.947 218.896C283.068 225.611 281.898 228.898 280.254 235.39C278.611 241.883 273.462 271.685 273.462 271.685L290.266 231.813C290.266 231.813 296.109 259.734 297.555 277.897C299.001 296.06 297.022 331.713 297.022 331.713L306.274 312.179C306.274 312.179 304.441 354.661 300.377 370.735C296.314 386.809 293.358 395.87 285.674 410.562C277.996 425.244 256.292 450.671 256.265 450.703C256.265 450.703 269.659 444.618 278.792 442.656C287.926 440.694 315.356 442.295 315.356 442.295C315.356 442.295 294.098 445.282 281.475 450.165C268.853 455.047 261.762 459.796 250.322 467.644C238.882 475.492 221.007 485.322 238.352 492.84L269.97 508.872L275.062 516.133L256.265 511.544L232.562 498.629L224.669 493.625C224.706 493.294 224.742 492.957 224.78 492.614C226.527 476.649 229.772 442.126 231.714 417.626C233.618 393.151 234.164 365.607 233.056 343.173C232.113 320.76 228.704 299.841 226.419 284.364C224.119 268.675 220.701 237.001 222.77 210.893C223.693 185.052 220.155 181.838 226.352 156.829C233.794 132.479 234.425 128.086 243.644 112.287C253.495 96.9212 258.257 88.7826 268.292 76.9194C278.788 65.5732 281.071 66.2153 289.84 58.6421C294.642 54.6775 298.972 51.601 301.895 49.6538C303.007 48.9171 302.979 48.4423 301.855 49.0024C300.633 49.6201 299.108 50.4479 297.202 51.5874C291.095 55.249 280.52 60.9177 272.98 68.3423C264.985 75.378 247.668 98.1854 242.572 106.074C237.267 113.798 233.898 119.431 229.907 129.455C226.124 139.458 224.337 139.792 222.738 147.282C221.108 154.725 217.054 171.453 216.407 188.373C215.693 205.233 214.384 207.384 213.359 221.965C212.27 236.948 216.016 246.524 216.706 258.542C217.537 270.63 216.527 270.793 219.077 285.481C221.762 300.137 226.082 336.62 226.554 354.558C227.369 372.409 225.349 395.697 225.01 406.791C224.637 417.916 223.982 434.016 222.716 463.401C221.986 479.858 221.344 487.034 220.814 491.181L218.312 489.595C217.208 485.982 189.619 492.215 186.896 489.595C184.174 486.975 175.949 483.683 171.609 482.355C167.268 481.027 160.21 480.076 160.21 480.076C160.21 480.076 165.957 474.905 170.133 472.297C174.303 469.694 183.423 466.14 183.453 466.128C183.425 466.092 172.089 451.335 167.405 442.931C162.721 434.528 157.271 420.486 157.256 420.449L179.964 440.561C179.923 440.498 173.601 430.826 169.952 424.381C166.29 417.915 156.763 397.339 156.763 397.339C156.763 397.339 164.916 408.884 171.023 415.531C177.11 422.156 193.623 435.556 193.731 435.643C193.664 435.539 184.251 420.904 178.085 411.597C171.898 402.257 166.938 397.349 161.59 387.148C156.242 376.947 152.89 366.127 149.073 352.105C145.255 338.083 140.795 305.939 140.755 297.216C140.716 288.493 141.96 274.912 141.96 274.912C141.96 274.912 146.654 289.582 150.365 294.489C154.075 299.395 161.943 305.171 161.943 305.171C161.943 305.171 154.082 283.625 152.419 272.587C150.757 261.55 151.274 255.186 151.39 244.025C151.506 232.877 155.802 195.26 155.812 195.169C155.814 195.23 156.29 208.263 157.109 216.58C157.93 224.916 158.305 233.173 161.044 243.398C163.777 253.599 178.589 280.727 178.658 280.854C178.617 280.711 168.649 245.636 166.675 231.508C164.697 217.352 164.005 209.035 164.215 194.99C164.425 180.945 165.585 167.024 167.655 159.186C169.725 151.348 171.905 147.268 174.805 139.698C177.706 132.127 183.219 117.365 188.793 105.77C194.368 94.1754 199.803 84.4 204.57 76.8501C209.331 69.3092 217.6 58.1031 217.621 58.0757C217.607 58.1183 212.905 72.6327 212.213 80.4702C211.522 88.3 213.056 100.568 213.064 100.628C213.073 100.577 215.109 89.6432 217.309 82.8833C219.514 76.1075 223.909 66.3004 229.779 56.5552C235.64 46.825 251.005 29.2533 251.053 29.1987L247.299 50.2964C247.299 50.2964 254.476 39.4121 260.395 33.6226C266.314 27.833 271.622 24.6155 279.436 19.7651C287.242 14.9195 318.931 2.13185 318.993 2.10693L298.523 27.7651Z" fill="#4D6BFE"/>
</g>
<defs>
<clipPath id="clip0_697_1008">
<rect width="512" height="512" fill="white"/>
</clipPath>
</defs>
</svg>
